<svg width="99" height="83" fill="none" xmlns="http://www.w3.org/2000/svg"><path d="M49.5 10c-9.534 0-17 4.4-17 10v8c0 4.566 5.186 8.512 12.638 9.658.42.221.887.339 1.362.342h6c.475-.003.942-.12 1.362-.342C61.314 36.512 66.5 32.566 66.5 28v-8c0-5.6-7.466-10-17-10Zm-15 18v-3.224a17.252 17.252 0 0 0 9.438 4.686A2.97 2.97 0 0 0 43.5 31v4c0 .104.02.2.03.304-5.338-1.272-9.03-4.168-9.03-7.304Zm19 7a1.042 1.042 0 0 1-1 1h-2v-2h1a1 1 0 0 0 0-2h-1v-2h2a1 1 0 0 1 1 1v4Zm-8 0v-4a1 1 0 0 1 1-1h2v2a1 1 0 0 0 0 2v2h-2a1.037 1.037 0 0 1-1-1Zm9.768-8.77c.2-2.422-2.34-3.894-4.768-4.174v-2c4.702.41 7.876 3.592 4.768 6.174ZM45.5 26c0-.944 1.71-2 4-2 2.176 0 3.8 1.056 3.8 2s-1.624 2-3.8 2c-1.628 0-4-.758-4-2Zm3-3.934c-2.868.31-5 1.918-5 3.93-2.8-2.7.694-5.564 5-5.936v2.006Zm9.616 3.6c.24-.524.37-1.09.384-1.666 0-3.366-3.954-6-9-6-5.046 0-9 2.634-9 6 .013.578.144 1.146.384 1.672A4.7 4.7 0 0 1 38.5 22c0-3.252 5.038-6 11-6s11 2.748 11 6a4.7 4.7 0 0 1-2.384 3.672v-.006ZM64.5 28c0 3.136-3.692 6.032-9.03 7.304.01-.102.03-.2.03-.304v-4a2.97 2.97 0 0 0-.438-1.538 17.252 17.252 0 0 0 9.438-4.686V28Zm-2.586-3.578A5.38 5.38 0 0 0 62.5 22c0-4.486-5.71-8-13-8s-13 3.514-13 8c.003.842.204 1.672.586 2.422A5.812 5.812 0 0 1 34.5 20c0-4.336 6.87-8 15-8 8.13 0 15 3.664 15 8a5.813 5.813 0 0 1-2.586 4.422ZM9.302 73.21H3.83L2.822 76H1.094L5.63 63.526h1.89L12.038 76H10.31l-1.008-2.79Zm-.468-1.332-2.268-6.336-2.268 6.336h4.536Zm4.569-.828c0-1.02.204-1.908.612-2.664a4.407 4.407 0 0 1 1.692-1.782c.732-.42 1.566-.63 2.502-.63 1.212 0 2.208.294 2.988.882.792.588 1.314 1.404 1.566 2.448h-1.764a2.518 2.518 0 0 0-.99-1.422c-.48-.348-1.08-.522-1.8-.522-.936 0-1.692.324-2.268.972-.576.636-.864 1.542-.864 2.718 0 1.188.288 2.106.864 2.754.576.648 1.332.972 2.268.972.72 0 1.32-.168 1.8-.504.48-.336.81-.816.99-1.44h1.764c-.264 1.008-.792 1.818-1.584 2.43-.792.6-1.782.9-2.97.9-.936 0-1.77-.21-2.502-.63a4.407 4.407 0 0 1-1.692-1.782c-.408-.768-.612-1.668-.612-2.7Zm10.934 0c0-1.02.204-1.908.611-2.664a4.407 4.407 0 0 1 1.692-1.782c.732-.42 1.566-.63 2.502-.63 1.213 0 2.209.294 2.988.882.792.588 1.314 1.404 1.566 2.448h-1.763a2.518 2.518 0 0 0-.99-1.422c-.48-.348-1.08-.522-1.8-.522-.937 0-1.692.324-2.268.972-.576.636-.864 1.542-.864 2.718 0 1.188.288 2.106.864 2.754.576.648 1.331.972 2.267.972.72 0 1.32-.168 1.8-.504.48-.336.81-.816.99-1.44h1.765c-.265 1.008-.793 1.818-1.585 2.43-.792.6-1.782.9-2.97.9-.936 0-1.77-.21-2.502-.63a4.407 4.407 0 0 1-1.692-1.782c-.407-.768-.611-1.668-.611-2.7Zm20.545-.36c0 .312-.018.642-.054.99h-7.884c.06.972.39 1.734.99 2.286.612.54 1.35.81 2.214.81.708 0 1.296-.162 1.764-.486.48-.336.816-.78 1.008-1.332h1.764A4.284 4.284 0 0 1 43.1 75.28c-.792.588-1.776.882-2.952.882-.936 0-1.776-.21-2.52-.63A4.492 4.492 0 0 1 35.9 73.75c-.42-.78-.63-1.68-.63-2.7 0-1.02.204-1.914.612-2.682a4.254 4.254 0 0 1 1.71-1.764c.744-.42 1.596-.63 2.556-.63.936 0 1.764.204 2.484.612.72.408 1.272.972 1.656 1.692.396.708.594 1.512.594 2.412Zm-1.692-.342c0-.624-.138-1.158-.414-1.602a2.605 2.605 0 0 0-1.134-1.026c-.468-.24-.99-.36-1.566-.36-.828 0-1.536.264-2.124.792-.576.528-.906 1.26-.99 2.196h6.228Zm7.346 5.814c-.756 0-1.434-.126-2.034-.378-.6-.264-1.074-.624-1.422-1.08a2.92 2.92 0 0 1-.576-1.602h1.692c.048.492.276.894.684 1.206.42.312.966.468 1.638.468.624 0 1.116-.138 1.476-.414.36-.276.54-.624.54-1.044 0-.432-.192-.75-.576-.954-.384-.216-.978-.426-1.782-.63a14.665 14.665 0 0 1-1.8-.576 3.418 3.418 0 0 1-1.188-.882c-.324-.396-.486-.912-.486-1.548 0-.504.15-.966.45-1.386.3-.42.726-.75 1.278-.99.552-.252 1.182-.378 1.89-.378 1.092 0 1.974.276 2.646.828.672.552 1.032 1.308 1.08 2.268h-1.638c-.036-.516-.246-.93-.63-1.242-.372-.312-.876-.468-1.512-.468-.588 0-1.056.126-1.404.378-.348.252-.522.582-.522.99 0 .324.102.594.306.81.216.204.48.372.792.504.324.12.768.258 1.332.414.708.192 1.284.384 1.728.576.444.18.822.456 1.134.828.324.372.492.858.504 1.458 0 .54-.15 1.026-.45 1.458-.3.432-.726.774-1.278 1.026-.54.24-1.164.36-1.872.36Zm10.215 0c-.924 0-1.764-.21-2.52-.63a4.58 4.58 0 0 1-1.764-1.782c-.42-.78-.63-1.68-.63-2.7 0-1.008.215-1.896.647-2.664a4.51 4.51 0 0 1 1.8-1.782c.757-.42 1.602-.63 2.538-.63.936 0 1.782.21 2.538.63.757.408 1.35.996 1.782 1.764.445.768.666 1.662.666 2.682s-.228 1.92-.684 2.7a4.634 4.634 0 0 1-1.817 1.782c-.769.42-1.62.63-2.556.63Zm0-1.44c.588 0 1.14-.138 1.656-.414.516-.276.93-.69 1.242-1.242.323-.552.486-1.224.486-2.016s-.157-1.464-.469-2.016c-.311-.552-.72-.96-1.223-1.224a3.356 3.356 0 0 0-1.639-.414c-.6 0-1.151.138-1.656.414-.492.264-.888.672-1.188 1.224-.3.552-.45 1.224-.45 2.016 0 .804.145 1.482.433 2.034.3.552.696.966 1.188 1.242a3.372 3.372 0 0 0 1.62.396Zm8.85-6.984a3.16 3.16 0 0 1 1.223-1.314c.54-.312 1.194-.468 1.962-.468v1.692h-.432c-1.836 0-2.754.996-2.754 2.988V76h-1.638v-9.864H69.6v1.602Zm5.922-3.204c-.312 0-.576-.108-.792-.324a1.077 1.077 0 0 1-.324-.792c0-.312.108-.576.324-.792.216-.216.48-.324.792-.324.3 0 .552.108.756.324.216.216.324.48.324.792 0 .312-.108.576-.324.792a.998.998 0 0 1-.756.324Zm.792 1.602V76h-1.638v-9.864h1.638Zm11.792 4.554c0 .312-.018.642-.054.99h-7.884c.06.972.39 1.734.99 2.286.612.54 1.35.81 2.214.81.708 0 1.296-.162 1.764-.486.48-.336.816-.78 1.008-1.332h1.764a4.284 4.284 0 0 1-1.584 2.322c-.792.588-1.776.882-2.952.882-.936 0-1.776-.21-2.52-.63a4.492 4.492 0 0 1-1.728-1.782c-.42-.78-.63-1.68-.63-2.7 0-1.02.204-1.914.612-2.682a4.254 4.254 0 0 1 1.71-1.764c.744-.42 1.596-.63 2.556-.63.936 0 1.764.204 2.484.612.72.408 1.272.972 1.656 1.692.396.708.594 1.512.594 2.412Zm-1.692-.342c0-.624-.138-1.158-.414-1.602a2.605 2.605 0 0 0-1.134-1.026c-.468-.24-.99-.36-1.566-.36-.828 0-1.536.264-2.124.792-.576.528-.906 1.26-.99 2.196h6.228Zm7.346 5.814c-.756 0-1.434-.126-2.034-.378-.6-.264-1.074-.624-1.422-1.08a2.92 2.92 0 0 1-.576-1.602h1.692c.048.492.276.894.684 1.206.42.312.966.468 1.638.468.624 0 1.116-.138 1.476-.414.36-.276.54-.624.54-1.044 0-.432-.192-.75-.576-.954-.384-.216-.978-.426-1.782-.63a14.665 14.665 0 0 1-1.8-.576 3.418 3.418 0 0 1-1.188-.882c-.324-.396-.486-.912-.486-1.548 0-.504.15-.966.45-1.386.3-.42.726-.75 1.278-.99.552-.252 1.182-.378 1.89-.378 1.092 0 1.974.276 2.646.828.672.552 1.032 1.308 1.08 2.268h-1.638c-.036-.516-.246-.93-.63-1.242-.372-.312-.876-.468-1.512-.468-.588 0-1.056.126-1.404.378-.348.252-.522.582-.522.99 0 .324.102.594.306.81.216.204.48.372.792.504.324.12.768.258 1.332.414.708.192 1.284.384 1.728.576.444.18.822.456 1.134.828.324.372.492.858.504 1.458 0 .54-.15 1.026-.45 1.458-.3.432-.726.774-1.278 1.026-.54.24-1.164.36-1.872.36Z" fill="#CDCFD1"/></svg>