<svg width="48" height="48" fill="none" xmlns="http://www.w3.org/2000/svg"><path d="M37.5 24.2c0-.41-.158-.805-.44-1.095a1.477 1.477 0 0 0-1.06-.454H15.615l1.95-1.997a1.58 1.58 0 0 0 .441-1.1 1.58 1.58 0 0 0-.44-1.099A1.482 1.482 0 0 0 16.5 18c-.4 0-.782.164-1.065.455l-4.5 4.646c-.208.217-.349.494-.405.794a1.595 1.595 0 0 0 .64 1.589c.245.17.534.263.83.264h24c.398 0 .78-.163 1.06-.453.282-.29.44-.685.44-1.095Z" fill="#CDCFD1"/><path d="M18 28.845a1.591 1.591 0 0 0-.435-1.1l-4.5-4.645a1.466 1.466 0 0 0-1.641-.337 1.503 1.503 0 0 0-.49.338 1.56 1.56 0 0 0-.326.504 1.598 1.598 0 0 0 .327 1.694l4.5 4.645a1.46 1.46 0 0 0 2.13 0 1.592 1.592 0 0 0 .435-1.1Z" fill="#CDCFD1"/></svg>