<svg width="48" height="48" fill="none" xmlns="http://www.w3.org/2000/svg"><path d="M10.5 24.2c0-.41.158-.805.44-1.095.28-.29.662-.454 1.06-.454h20.385l-1.95-1.997a1.58 1.58 0 0 1-.44-1.1c0-.412.158-.807.44-1.099A1.482 1.482 0 0 1 31.5 18c.4 0 .783.164 1.065.455l4.5 4.646c.208.217.35.494.406.794a1.596 1.596 0 0 1-.64 1.589c-.245.17-.535.263-.83.264H12c-.399 0-.78-.163-1.061-.453a1.574 1.574 0 0 1-.44-1.095Z" fill="#CDCFD1"/><path d="M30 28.845a1.591 1.591 0 0 1 .435-1.1l4.5-4.645a1.466 1.466 0 0 1 1.641-.337c.183.079.349.193.489.338a1.598 1.598 0 0 1 0 2.199l-4.5 4.644a1.46 1.46 0 0 1-2.13 0 1.592 1.592 0 0 1-.435-1.1Z" fill="#CDCFD1"/></svg>