<svg width="49" height="49" fill="none" xmlns="http://www.w3.org/2000/svg"><path d="M10.902 2.436c-.296 1.322-.586 2.644-.882 3.966L8.586 12.88c-.117.534-.24 1.068-.356 1.603-.333 1.514-.497 3.08-.408 4.631.23 3.919 1.8 7.65 4.472 10.538a16.382 16.382 0 0 0 4.622 3.478c1.973.989 4.064 1.57 6.257 1.767 3.985.356 8.152-.849 11.325-3.281 1.627-1.247 3.015-2.705 4.116-4.44a16.379 16.379 0 0 0 2.152-5.151c.417-1.847.548-3.773.314-5.658a27.44 27.44 0 0 0-.446-2.48l-1.293-5.835-1.182-5.325c-.023-.099-.042-.197-.065-.296-.09-.393-.366-.736-.67-.975a1.84 1.84 0 0 0-1.135-.403H15.608c-.952 0-1.908-.014-2.864 0h-.038c-.98 0-1.922.863-1.875 1.875.047 1.017.825 1.875 1.875 1.875H33.388c.951 0 1.907.019 2.864 0h.037c-.605-.46-1.205-.919-1.81-1.378.324 1.467.652 2.934.976 4.406.492 2.208.98 4.42 1.471 6.628.174.774.357 1.547.46 2.335a18.023 18.023 0 0 1-.066-.497 15.038 15.038 0 0 1-.004 3.947c.023-.164.046-.333.065-.497a15.071 15.071 0 0 1-1.022 3.75c.061-.15.127-.3.188-.45a15.13 15.13 0 0 1-1.922 3.305l.295-.38a14.97 14.97 0 0 1-2.695 2.695l.38-.295a15.12 15.12 0 0 1-3.267 1.908c.15-.061.3-.127.45-.188-1.215.511-2.49.863-3.797 1.04.164-.023.332-.046.497-.065a15.252 15.252 0 0 1-3.976 0c.165.024.333.047.497.066a15.006 15.006 0 0 1-3.797-1.04c.15.06.3.126.45.187a15.09 15.09 0 0 1-3.267-1.908l.38.295a15.124 15.124 0 0 1-2.695-2.695l.295.38a15.206 15.206 0 0 1-1.922-3.305c.061.15.127.3.188.45a15.071 15.071 0 0 1-1.022-3.75c.023.164.047.333.065.497a15.038 15.038 0 0 1-.004-3.947 18.31 18.31 0 0 0-.066.497c.094-.699.253-1.388.403-2.077.206-.937.413-1.87.624-2.808.506-2.287 1.017-4.58 1.523-6.867.122-.539.24-1.078.361-1.617.108-.492.07-1.003-.188-1.444-.23-.389-.675-.76-1.12-.862-.478-.108-1.017-.085-1.444.187-.407.267-.764.652-.871 1.13Z" fill="#393D46"/><path d="M22.625 33.102V46.067c0 .98.863 1.922 1.875 1.875 1.017-.047 1.875-.825 1.875-1.875V33.101c0-.98-.863-1.921-1.875-1.874-1.017.046-1.875.824-1.875 1.875Z" fill="#393D46"/><path d="M15.758 47.942H31.077c.708 0 1.42.014 2.128 0h.028c.98 0 1.922-.862 1.875-1.875-.047-1.017-.825-1.875-1.875-1.875H17.914c-.708 0-1.42-.014-2.128 0h-.028c-.98 0-1.922.862-1.875 1.875.047 1.017.825 1.875 1.875 1.875Zm11.64-28.214-1.056-3c-.557-1.594-1.115-3.188-1.678-4.781-.126-.366-.258-.727-.384-1.092l-2.306 2.306c1.18.168 2.357.332 3.539.501l.506.07c.333.09.666.09.998 0a1.86 1.86 0 0 0 .83-.482c.497-.497.619-1.158.483-1.824-.211-1.008-.417-2.02-.628-3.028-.338-1.617-.67-3.234-1.008-4.851-.075-.37-.155-.741-.23-1.107-.093-.445-.478-.895-.862-1.12-.403-.234-.994-.333-1.444-.187-.455.145-.89.426-1.12.862-.244.464-.296.928-.188 1.444.211 1.008.417 2.02.628 3.028.338 1.617.67 3.234 1.008 4.852.075.37.155.74.23 1.106l2.306-2.307c-1.181-.168-2.358-.332-3.539-.501l-.506-.07a1.9 1.9 0 0 0-.999 0 1.86 1.86 0 0 0-.83.482c-.45.45-.698 1.205-.482 1.824l1.055 3c.557 1.594 1.115 3.187 1.678 4.781.126.366.258.727.384 1.092.164.464.427.867.862 1.12.404.235.994.334 1.444.188.455-.145.89-.426 1.12-.862.226-.427.357-.97.188-1.444Z" fill="#393D46"/></svg>