<svg width="24" height="25" fill="none" xmlns="http://www.w3.org/2000/svg"><path d="M19.44 13.288c-.22 0-.45-.07-.67-.12a9.457 9.457 0 0 1-1.31-.39 2 2 0 0 0-2.48 1l-.22.45a12.184 12.184 0 0 1-2.66-2 12.18 12.18 0 0 1-2-2.66l.42-.28a2 2 0 0 0 1-2.48 10.336 10.336 0 0 1-.39-1.31c-.05-.22-.09-.45-.12-.68a3 3 0 0 0-3-2.49h-3a3 3 0 0 0-3 3.41 19 19 0 0 0 16.52 16.46h.38a3 3 0 0 0 2-.76 3 3 0 0 0 1-2.25v-3a3 3 0 0 0-2.47-2.9Zm.5 6a1 1 0 0 1-.724.962 1.06 1.06 0 0 1-.436.038A17 17 0 0 1 4.07 5.508a1.09 1.09 0 0 1 .25-.82 1 1 0 0 1 .75-.34h3a1 1 0 0 1 1 .79c.04.273.09.543.15.81.115.527.269 1.045.46 1.55l-1.4.65a1 1 0 0 0-.49 1.33 14.49 14.49 0 0 0 7 7 1 1 0 0 0 .76 0 1.002 1.002 0 0 0 .57-.52l.62-1.4c.517.185 1.044.338 1.58.46.266.06.536.11.81.15a1 1 0 0 1 .79 1l.02 3.12Z" fill="#fff"/></svg>