<svg width="49" height="49" fill="none" xmlns="http://www.w3.org/2000/svg"><path d="M43.54 11v23.789c0 1.06.005 2.119 0 3.178 0 .099-.004.192-.018.29.023-.163.047-.332.066-.496a2.188 2.188 0 0 1-.127.487c.061-.15.127-.3.188-.45a2.195 2.195 0 0 1-.277.479l.295-.38a2.205 2.205 0 0 1-.347.347l.38-.296c-.15.113-.31.207-.478.277.15-.06.3-.127.45-.188-.16.061-.319.104-.487.127.163-.023.332-.047.496-.066-.398.047-.815.02-1.218.02H5.628c-.103 0-.206-.006-.31-.02.165.024.334.047.498.066a2.2 2.2 0 0 1-.488-.127c.15.061.3.127.45.188a2.194 2.194 0 0 1-.478-.277l.38.296a2.207 2.207 0 0 1-.347-.347l.295.38a2.223 2.223 0 0 1-.276-.479c.06.15.126.3.187.45a2.193 2.193 0 0 1-.126-.487c.023.164.046.333.065.497-.033-.31-.019-.624-.019-.933V14.244c0-1.069-.004-2.138 0-3.211 0-.099.005-.192.02-.29a17.96 17.96 0 0 0-.066.496c.023-.169.065-.328.126-.487-.06.15-.126.3-.187.45.075-.174.164-.333.276-.479l-.295.38c.103-.126.216-.244.347-.347l-.38.296c.15-.113.31-.207.478-.277-.15.06-.3.127-.45.188a2.2 2.2 0 0 1 .488-.127c-.164.023-.333.047-.497.066.398-.047.815-.02 1.219-.02H43.372c.103 0 .206.005.31.02a18.024 18.024 0 0 0-.498-.066c.17.023.329.066.488.127-.15-.061-.3-.127-.45-.188.173.075.333.164.478.277l-.38-.296c.127.103.244.216.347.347a549.6 549.6 0 0 1-.295-.38c.112.15.206.31.276.479-.06-.15-.126-.3-.187-.45.061.159.103.318.127.487a18.023 18.023 0 0 1-.066-.497c.014.085.019.169.019.258.01.488.201.98.548 1.327.324.323.858.571 1.327.548 1.003-.047 1.894-.825 1.875-1.875a3.988 3.988 0 0 0-1.092-2.695c-.69-.732-1.632-1.092-2.616-1.172-.117-.01-.24-.005-.361-.005H5.69c-.662 0-1.266.15-1.866.427-.718.328-1.383 1.003-1.707 1.72-.258.572-.408 1.102-.412 1.74v26.713c0 .136-.005.272.004.408.066.989.432 1.926 1.154 2.625a3.955 3.955 0 0 0 2.68 1.11c.287.006.568 0 .854 0H43.325c.694 0 1.35-.159 1.964-.477 1.252-.647 1.992-2.035 2.006-3.413.005-.473 0-.942 0-1.415V11c0-.98-.862-1.922-1.875-1.875-1.017.047-1.88.825-1.88 1.875Z" fill="#393D46"/><path d="M43.54 16.1v6.426l1.876-1.875H5.276c-.543 0-1.087-.009-1.626 0h-.07l1.875 1.875V16.1L3.58 17.975H43.719c.543 0 1.087.005 1.626 0h.07c.98 0 1.922-.863 1.876-1.875-.047-1.017-.825-1.875-1.875-1.875H5.276c-.543 0-1.087-.005-1.626 0h-.07c-1.013 0-1.875.858-1.875 1.875v6.426c0 1.013.857 1.875 1.875 1.875H43.719c.543 0 1.087.005 1.626 0h.07c1.013 0 1.876-.857 1.876-1.875V16.1c0-.98-.863-1.922-1.875-1.875-1.013.042-1.875.82-1.875 1.875ZM10.373 32.966h11.583c.98 0 1.922-.863 1.875-1.875-.047-1.018-.825-1.875-1.875-1.875H10.37c-.979 0-1.921.862-1.874 1.875.042 1.017.82 1.875 1.875 1.875Z" fill="#393D46"/></svg>