<svg aria-hidden="true" style="position: absolute; width: 0; height: 0; overflow: hidden;" version="1.1" xmlns="http://www.w3.org/2000/svg" xmlns:xlink="http://www.w3.org/1999/xlink">
<defs>
<symbol id="icon-card" viewBox="0 0 32 32">
<path d="M28.694 7v15.859c0 0.706 0.003 1.413 0 2.119 0 0.066-0.003 0.128-0.013 0.194 0.016-0.11 0.032-0.222 0.044-0.331-0.016 0.112-0.043 0.218-0.084 0.325 0.040-0.1 0.084-0.2 0.125-0.3-0.052 0.122-0.113 0.226-0.187 0.322l0.003-0.003 0.197-0.253c-0.069 0.084-0.144 0.162-0.232 0.232l0.254-0.198c-0.092 0.070-0.197 0.132-0.309 0.18l-0.010 0.004c0.099-0.040 0.2-0.084 0.299-0.125-0.106 0.041-0.212 0.069-0.325 0.085 0.11-0.016 0.222-0.032 0.331-0.044-0.266 0.032-0.544 0.013-0.812 0.013h-24.557c-0.069 0-0.137-0.003-0.206-0.013 0.109 0.016 0.222 0.032 0.331 0.044-0.122-0.017-0.232-0.047-0.336-0.088l0.010 0.003c0.1 0.041 0.2 0.085 0.3 0.126-0.122-0.052-0.226-0.114-0.322-0.187l0.003 0.003 0.253 0.197c-0.086-0.069-0.162-0.145-0.229-0.228l-0.002-0.003 0.197 0.253c-0.070-0.092-0.132-0.197-0.18-0.309l-0.004-0.010c0.040 0.1 0.084 0.2 0.125 0.3-0.037-0.094-0.067-0.203-0.083-0.317l-0.001-0.008c0.016 0.11 0.031 0.222 0.043 0.331-0.022-0.206-0.012-0.416-0.012-0.622v-15.388c0-0.712-0.003-1.425 0-2.141 0-0.066 0.003-0.128 0.012-0.194-0.016 0.11-0.031 0.222-0.043 0.331 0.016-0.112 0.043-0.218 0.084-0.325-0.040 0.1-0.084 0.2-0.125 0.3 0.050-0.116 0.11-0.222 0.184-0.318l-0.197 0.253c0.069-0.086 0.146-0.163 0.229-0.23l0.003-0.002-0.254 0.198c0.1-0.075 0.206-0.138 0.318-0.184-0.1 0.040-0.2 0.084-0.3 0.125 0.094-0.038 0.204-0.067 0.318-0.084l0.008-0.001c-0.11 0.016-0.222 0.032-0.331 0.044 0.266-0.032 0.544-0.013 0.812-0.013h24.556c0.070 0 0.138 0.003 0.206 0.013-0.109-0.016-0.222-0.032-0.331-0.044 0.112 0.016 0.219 0.044 0.326 0.085-0.101-0.041-0.2-0.085-0.301-0.125 0.116 0.050 0.222 0.109 0.319 0.184l-0.253-0.197c0.084 0.069 0.162 0.144 0.231 0.231l-0.197-0.253c0.074 0.1 0.137 0.206 0.184 0.318-0.040-0.1-0.084-0.2-0.125-0.3 0.040 0.106 0.069 0.213 0.084 0.325-0.009-0.045-0.024-0.159-0.037-0.272l-0.006-0.059c0.009 0.056 0.012 0.112 0.012 0.172 0.006 0.325 0.134 0.653 0.366 0.884 0.216 0.216 0.572 0.382 0.885 0.366 0.669-0.031 1.262-0.55 1.25-1.25-0.009-0.697-0.284-1.329-0.729-1.798l0.001 0.001c-0.459-0.488-1.088-0.728-1.744-0.782-0.078-0.006-0.159-0.003-0.24-0.003h-25.022c-0.44 0-0.843 0.1-1.243 0.285-0.501 0.246-0.896 0.644-1.131 1.133l-0.006 0.015c-0.172 0.381-0.272 0.734-0.275 1.159v17.809c0 0.091-0.003 0.182 0.003 0.272 0.043 0.66 0.288 1.285 0.768 1.75 0.482 0.466 1.12 0.728 1.788 0.741 0.19 0.003 0.378 0 0.569 0h24.618c0.463 0 0.9-0.106 1.31-0.319 0.834-0.431 1.328-1.356 1.338-2.275 0.003-0.315 0-0.628 0-0.944v-17.044c0-0.653-0.575-1.282-1.25-1.25-0.678 0.032-1.254 0.55-1.254 1.25z"></path>
<path d="M28.694 10.4v4.284l1.25-1.25h-26.76c-0.362 0-0.725-0.006-1.084 0h-0.047l1.25 1.25v-4.285l-1.25 1.25h26.76c0.362 0 0.725 0.002 1.084 0h0.047c0.653 0 1.281-0.576 1.25-1.25-0.031-0.678-0.55-1.25-1.25-1.25h-26.76c-0.362 0-0.725-0.002-1.084 0h-0.047c-0.674 0-1.25 0.572-1.25 1.25v4.284c0 0.675 0.572 1.25 1.25 1.25h26.76c0.362 0 0.725 0.003 1.084 0h0.047c0.674 0 1.25-0.572 1.25-1.25v-4.284c0-0.653-0.575-1.282-1.25-1.25-0.675 0.029-1.25 0.547-1.25 1.25zM6.582 21.644h7.722c0.653 0 1.281-0.576 1.25-1.25-0.031-0.678-0.55-1.25-1.25-1.25h-7.722c-0.654 0-1.282 0.574-1.25 1.25 0.028 0.678 0.547 1.25 1.25 1.25z"></path>
</symbol>
<symbol id="icon-transfer" viewBox="0 0 32 32">
<path fill="#393d46" style="fill: var(--color1, #393d46)" d="M0 0h32v32h-32z"></path>
<path fill="#fff" style="fill: var(--color2, #fff)" d="M2.666 14.666v-8c0-0.736 0.597-1.333 1.334-1.333h20.786l-0.386-0.387c-0.198-0.231-0.318-0.534-0.318-0.865 0-0.737 0.597-1.334 1.334-1.334 0.331 0 0.634 0.12 0.867 0.32l-0.002-0.002 2.666 2.667c0.24 0.241 0.388 0.573 0.388 0.94s-0.148 0.699-0.388 0.94l-2.666 2.666c-0.231 0.198-0.534 0.318-0.865 0.318-0.737 0-1.334-0.597-1.334-1.334 0-0.331 0.12-0.634 0.32-0.867l-0.002 0.002 0.386-0.4h-19.453v6.666c0 0.737-0.597 1.334-1.334 1.334s-1.334-0.597-1.334-1.334v0zM28 16c-0.737 0-1.334 0.597-1.334 1.334v0 6.666h-19.453l0.386-0.386c0.198-0.231 0.318-0.534 0.318-0.865 0-0.737-0.597-1.334-1.334-1.334-0.331 0-0.634 0.12-0.867 0.32l0.002-0.002-2.666 2.666c-0.24 0.241-0.388 0.573-0.388 0.94s0.148 0.699 0.388 0.94l2.666 2.666c0.232 0.202 0.538 0.325 0.872 0.325 0.736 0 1.333-0.597 1.333-1.333 0-0.334-0.123-0.64-0.327-0.874l0.001 0.002-0.386-0.4h20.786c0.736 0 1.333-0.597 1.334-1.333v-8c0-0.737-0.597-1.334-1.334-1.334v0z"></path>
</symbol>
<symbol id="icon-paypal" viewBox="0 0 32 32">
<path d="M27.25 9.472c-0.23-0.256-0.48-0.485-0.751-0.688l-0.013-0.010c0.032-0.239 0.051-0.516 0.051-0.797 0-1.611-0.605-3.081-1.6-4.196l0.005 0.006c-1.445-1.629-3.908-2.454-7.322-2.454h-8.285c-1.249 0.003-2.285 0.914-2.483 2.108l-0.002 0.015-3.453 21.874c-0.018 0.101-0.028 0.218-0.028 0.337 0 1.129 0.915 2.044 2.044 2.044 0.002 0 0.003 0 0.005 0h3.552l-0.11 0.694c-0.015 0.092-0.024 0.198-0.024 0.306 0 1.080 0.875 1.955 1.955 1.955 0 0 0 0 0 0h4.312c0.006 0 0.012 0 0.019 0 1.16 0 2.123-0.841 2.314-1.946l0.002-0.014 0.854-5.374 0.014-0.073h0.398c5.376 0 8.735-2.658 9.714-7.684 0.17-0.569 0.268-1.223 0.268-1.899 0-1.59-0.541-3.054-1.448-4.218l0.011 0.015zM10.457 18.272l-0.953 6.048-0.115 0.725h-3.248l3.323-21.045h8.156c2.581 0 4.423 0.539 5.323 1.552 0.594 0.688 0.957 1.591 0.957 2.579 0 0.379-0.053 0.746-0.153 1.093l0.007-0.028-0.025 0.15c-0.016 0.102-0.031 0.202-0.058 0.328-0.273 1.972-1.249 3.677-2.662 4.885l-0.011 0.009c-1.418 0.997-3.18 1.593-5.082 1.593-0.191 0-0.38-0.006-0.567-0.018l0.026 0.001h-2.43c-0.002 0-0.005 0-0.008 0-1.25 0-2.287 0.915-2.476 2.112l-0.002 0.014zM25.801 15.065c-0.734 3.771-2.989 5.528-7.096 5.528h-0.644c-0.006-0-0.012-0-0.019-0-1.161 0-2.125 0.842-2.314 1.949l-0.002 0.014-0.866 5.432-3.236 0.012 0.638-4.045 0.814-5.138h2.293c0.209 0 0.394-0.032 0.598-0.038 0.478-0.016 0.955-0.035 1.403-0.090 0.274-0.034 0.525-0.096 0.787-0.145 0.363-0.067 0.727-0.134 1.068-0.229 0.254-0.070 0.491-0.162 0.732-0.248 0.32-0.112 0.634-0.232 0.93-0.371 0.224-0.106 0.438-0.222 0.648-0.342 0.282-0.16 0.554-0.334 0.817-0.522 0.19-0.137 0.376-0.278 0.554-0.428 0.252-0.217 0.49-0.448 0.716-0.692 0.15-0.161 0.305-0.317 0.445-0.49 0.231-0.295 0.445-0.603 0.64-0.924 0.102-0.162 0.214-0.314 0.309-0.485 0.27-0.494 0.502-1.008 0.694-1.538 0.011-0.032 0.028-0.058 0.039-0.090 0.005-0.016 0.013-0.028 0.018-0.042 0.132 0.458 0.207 0.984 0.207 1.528 0 0.495-0.063 0.976-0.181 1.434l0.009-0.040z"></path>
</symbol>
</defs>
</svg>
