<svg width="61" height="83" fill="none" xmlns="http://www.w3.org/2000/svg"><path d="M43.974 14.69a2.998 2.998 0 0 0-1.838-1.732l-4.726-1.576-1.262-2.524A2.986 2.986 0 0 0 33.464 7.2h-5.528a2.986 2.986 0 0 0-2.684 1.658l-1.262 2.524-4.726 1.576a2.998 2.998 0 0 0-1.838 1.732l-3.368 8.422a4.955 4.955 0 0 0-.358 1.858V37.2a2 2 0 0 0 2 2h2a2 2 0 0 0 2-2v-2.852l1-3.336v2.244a6.675 6.675 0 0 0 1 3.18V39.2a2 2 0 0 0 2 2h14a2 2 0 0 0 2-2v-2.764a6.673 6.673 0 0 0 1-3.18v-2.244l1 3.336V37.2a2 2 0 0 0 2 2h2a2 2 0 0 0 2-2V24.97a4.936 4.936 0 0 0-.358-1.856l-3.368-8.424Zm-2.296.27a52.074 52.074 0 0 0-2.926 4.978c-.106.4-.016-.064-.052 11.262a3 3 0 0 1-3-3 1 1 0 0 0-2 0 5 5 0 0 0 5 5v.056a4.162 4.162 0 0 1-.618 1.944H31.7V16.736l5.148-3.432c5.712 1.942 4.432 1.424 4.83 1.656ZM26.5 10.852l1.238 2.166-1.74-1.16.502-1.006Zm8.416 0 .502 1-1.74 1.16 1.238-2.16ZM33.544 9.22 30.7 14.184 27.864 9.22c.406-.02 5.264-.02 5.672 0h.008Zm-8.992 4.084 5.148 3.432V35.2h-6.382a4.085 4.085 0 0 1-.618-1.944V33.2a5 5 0 0 0 5-5 1 1 0 0 0-2 0 3 3 0 0 1-3 3c-.036-11.324.054-10.872-.052-11.262a51.73 51.73 0 0 0-2.926-4.978c.306-.18 2.79-.96 4.83-1.656ZM15.7 37.2v-2h2v2h-2Zm4.874-12.724L17.956 33.2H15.7v-8.23a3 3 0 0 1 .214-1.114l2.726-6.812 2.06 3.432v3.138a3 3 0 0 1-.126.862ZM23.7 39.2v-2h14v2h-14Zm17-15.586v-3.138l2.06-3.432 2.726 6.814c.142.354.215.731.214 1.112v8.23h-2.256l-2.618-8.726a2.975 2.975 0 0 1-.126-.86Zm3 13.586v-2h2v2h-2ZM8.204 63.454v9.27c0 1.032-.318 1.86-.954 2.484-.636.612-1.476.918-2.52.918-1.056 0-1.902-.312-2.538-.936-.636-.636-.954-1.5-.954-2.592h1.638c.012.612.168 1.11.468 1.494.312.384.774.576 1.386.576.612 0 1.068-.18 1.368-.54.3-.372.45-.84.45-1.404v-9.27h1.656Zm2.615 7.578c0-1.008.204-1.89.612-2.646a4.446 4.446 0 0 1 1.674-1.782c.72-.42 1.518-.63 2.394-.63.864 0 1.614.186 2.25.558.636.372 1.11.84 1.422 1.404v-1.8h1.656V76H19.17v-1.836c-.324.576-.81 1.056-1.458 1.44-.636.372-1.38.558-2.232.558-.876 0-1.668-.216-2.376-.648-.708-.432-1.266-1.038-1.674-1.818-.408-.78-.612-1.668-.612-2.664Zm8.352.018c0-.744-.15-1.392-.45-1.944a3.098 3.098 0 0 0-1.224-1.26 3.211 3.211 0 0 0-1.674-.45c-.612 0-1.17.144-1.674.432a3.134 3.134 0 0 0-1.206 1.26c-.3.552-.45 1.2-.45 1.944 0 .756.15 1.416.45 1.98.3.552.702.978 1.206 1.278a3.314 3.314 0 0 0 1.674.432c.612 0 1.17-.144 1.674-.432.516-.3.924-.726 1.224-1.278.3-.564.45-1.218.45-1.962Zm3.812 0c0-1.02.204-1.908.612-2.664a4.407 4.407 0 0 1 1.692-1.782c.732-.42 1.566-.63 2.502-.63 1.212 0 2.208.294 2.988.882.792.588 1.314 1.404 1.566 2.448h-1.764a2.518 2.518 0 0 0-.99-1.422c-.48-.348-1.08-.522-1.8-.522-.936 0-1.692.324-2.268.972-.576.636-.864 1.542-.864 2.718 0 1.188.288 2.106.864 2.754.576.648 1.332.972 2.268.972.72 0 1.32-.168 1.8-.504.48-.336.81-.816.99-1.44h1.764c-.264 1.008-.792 1.818-1.584 2.43-.792.6-1.782.9-2.97.9-.936 0-1.77-.21-2.502-.63a4.407 4.407 0 0 1-1.692-1.782c-.408-.768-.612-1.668-.612-2.7ZM40.037 76l-3.87-4.356V76h-1.638V62.68h1.638v7.83l3.798-4.374h2.286l-4.644 4.914L42.269 76h-2.232Zm12.755-5.31c0 .312-.018.642-.054.99h-7.884c.06.972.39 1.734.99 2.286.612.54 1.35.81 2.214.81.708 0 1.296-.162 1.764-.486.48-.336.816-.78 1.008-1.332h1.764a4.284 4.284 0 0 1-1.584 2.322c-.792.588-1.776.882-2.952.882-.936 0-1.776-.21-2.52-.63a4.492 4.492 0 0 1-1.728-1.782c-.42-.78-.63-1.68-.63-2.7 0-1.02.204-1.914.612-2.682a4.254 4.254 0 0 1 1.71-1.764c.744-.42 1.596-.63 2.556-.63.936 0 1.764.204 2.484.612.72.408 1.272.972 1.656 1.692.396.708.594 1.512.594 2.412Zm-1.692-.342c0-.624-.138-1.158-.414-1.602a2.605 2.605 0 0 0-1.134-1.026c-.468-.24-.99-.36-1.566-.36-.828 0-1.536.264-2.124.792-.576.528-.906 1.26-.99 2.196H51.1Zm5.852-2.862V73.3c0 .48.102.822.306 1.026.204.192.558.288 1.062.288h1.206V76H58.05c-.912 0-1.596-.21-2.052-.63-.456-.42-.684-1.11-.684-2.07v-5.814h-1.278v-1.35h1.278v-2.484h1.638v2.484h2.574v1.35h-2.574Z" fill="#CDCFD1"/></svg>