<svg width="51" height="83" fill="none" xmlns="http://www.w3.org/2000/svg"><path d="M13.5 33.586a13.059 13.059 0 0 0 1.83 6.31A2 2 0 0 0 17.118 41h8.6a2 2 0 0 0 1.942-1.516l.84-3.36.84 3.36A2 2 0 0 0 31.282 41h2.6a2 2 0 0 0 1.79-1.108 13.01 13.01 0 0 0 1.828-6.306c0-5.884-4-7.724-4-9.98 0-2.8 4-3.278 4-7.212 0-4.258-4-3.826-4-6.472V9a2 2 0 0 0-2-2h-2a2 2 0 0 0-2 2v1.2a2.365 2.365 0 0 1-1.054 1.97 4.38 4.38 0 0 0-.946.852 4.376 4.376 0 0 0-.946-.852A2.364 2.364 0 0 1 23.5 10.2V9a2 2 0 0 0-2-2h-2a2 2 0 0 0-2 2v.922a2.353 2.353 0 0 1-1.304 2.114A4.85 4.85 0 0 0 13.5 16.4c0 3.888 4 4.452 4 7.246 0 2.136-4 4.102-4 9.94Zm2-17.2c0-3.148 4-2.312 4-6.472V9h2v1.2a4.355 4.355 0 0 0 1.946 3.634A2.363 2.363 0 0 1 24.5 15.8a1 1 0 0 0 2 0 2.365 2.365 0 0 1 1.054-1.97A4.355 4.355 0 0 0 29.5 10.2V9h2v.922c0 4.2 4 3.296 4 6.472 0 2.824-4 3.276-4 7.246 0 3.51 4 4.442 4 9.946A11.227 11.227 0 0 1 33.884 39h-2.6l-1.812-7.242a1.038 1.038 0 0 0-1.94 0L25.718 39h-8.6a11.24 11.24 0 0 1-1.618-5.414c0-5.448 4-6.418 4-9.98 0-3.968-4-4.356-4-7.206v-.014ZM5.792 63.454c1.368 0 2.55.258 3.546.774 1.008.504 1.776 1.23 2.304 2.178.54.948.81 2.064.81 3.348 0 1.284-.27 2.4-.81 3.348-.528.936-1.296 1.656-2.304 2.16-.996.492-2.178.738-3.546.738H1.886V63.454h3.906Zm0 11.196c1.62 0 2.856-.426 3.708-1.278.852-.864 1.278-2.07 1.278-3.618 0-1.56-.432-2.778-1.296-3.654-.852-.876-2.082-1.314-3.69-1.314H3.524v9.864h2.268Zm10.459-6.912a3.16 3.16 0 0 1 1.224-1.314c.54-.312 1.194-.468 1.962-.468v1.692h-.432c-1.836 0-2.754.996-2.754 2.988V76h-1.638v-9.864h1.638v1.602Zm14.076 2.952c0 .312-.018.642-.054.99H22.39c.06.972.39 1.734.99 2.286.612.54 1.35.81 2.214.81.708 0 1.296-.162 1.764-.486.48-.336.816-.78 1.008-1.332h1.764a4.284 4.284 0 0 1-1.584 2.322c-.792.588-1.776.882-2.952.882-.936 0-1.776-.21-2.52-.63a4.492 4.492 0 0 1-1.728-1.782c-.42-.78-.63-1.68-.63-2.7 0-1.02.204-1.914.612-2.682a4.254 4.254 0 0 1 1.71-1.764c.744-.42 1.596-.63 2.556-.63.936 0 1.764.204 2.484.612.72.408 1.272.972 1.656 1.692.396.708.594 1.512.594 2.412Zm-1.692-.342c0-.624-.138-1.158-.414-1.602a2.605 2.605 0 0 0-1.134-1.026c-.468-.24-.99-.36-1.566-.36-.828 0-1.536.264-2.124.792-.576.528-.906 1.26-.99 2.196h6.228Zm7.346 5.814c-.756 0-1.434-.126-2.034-.378-.6-.264-1.074-.624-1.422-1.08a2.92 2.92 0 0 1-.575-1.602h1.692c.047.492.275.894.683 1.206.42.312.966.468 1.639.468.623 0 1.116-.138 1.476-.414.36-.276.54-.624.54-1.044 0-.432-.192-.75-.576-.954-.385-.216-.979-.426-1.783-.63a14.665 14.665 0 0 1-1.8-.576 3.418 3.418 0 0 1-1.188-.882c-.324-.396-.486-.912-.486-1.548 0-.504.15-.966.45-1.386.3-.42.727-.75 1.279-.99.552-.252 1.181-.378 1.89-.378 1.092 0 1.974.276 2.645.828.672.552 1.032 1.308 1.08 2.268h-1.638c-.035-.516-.245-.93-.63-1.242-.371-.312-.876-.468-1.511-.468-.589 0-1.056.126-1.405.378-.348.252-.522.582-.522.99 0 .324.103.594.307.81.215.204.48.372.791.504.325.12.768.258 1.332.414.708.192 1.284.384 1.728.576.445.18.823.456 1.135.828.323.372.491.858.503 1.458 0 .54-.15 1.026-.45 1.458-.3.432-.725.774-1.278 1.026-.54.24-1.163.36-1.872.36Zm9.405 0c-.756 0-1.434-.126-2.034-.378-.6-.264-1.074-.624-1.422-1.08a2.92 2.92 0 0 1-.576-1.602h1.692c.048.492.276.894.684 1.206.42.312.966.468 1.638.468.624 0 1.116-.138 1.476-.414.36-.276.54-.624.54-1.044 0-.432-.192-.75-.576-.954-.384-.216-.978-.426-1.782-.63a14.665 14.665 0 0 1-1.8-.576 3.418 3.418 0 0 1-1.188-.882c-.324-.396-.486-.912-.486-1.548 0-.504.15-.966.45-1.386.3-.42.726-.75 1.278-.99.552-.252 1.182-.378 1.89-.378 1.092 0 1.974.276 2.646.828.672.552 1.032 1.308 1.08 2.268h-1.638c-.036-.516-.246-.93-.63-1.242-.372-.312-.876-.468-1.512-.468-.588 0-1.056.126-1.404.378-.348.252-.522.582-.522.99 0 .324.102.594.306.81.216.204.48.372.792.504.324.12.768.258 1.332.414.708.192 1.284.384 1.728.576.444.18.822.456 1.134.828.324.372.492.858.504 1.458 0 .54-.15 1.026-.45 1.458-.3.432-.726.774-1.278 1.026-.54.24-1.164.36-1.872.36Z" fill="#CDCFD1"/></svg>