<svg width="49" height="83" fill="none" xmlns="http://www.w3.org/2000/svg"><path d="M39.5 28.5A4.505 4.505 0 0 1 35 24c0-2.482 2.019-4.5 4.5-4.5S44 21.518 44 24s-2.019 4.5-4.5 4.5Zm0-6a1.5 1.5 0 0 0 0 3 1.5 1.5 0 0 0 0-3Zm-15 6A4.505 4.505 0 0 1 20 24c0-2.482 2.019-4.5 4.5-4.5S29 21.518 29 24s-2.019 4.5-4.5 4.5Zm0-6a1.5 1.5 0 0 0 0 3 1.5 1.5 0 0 0 0-3Zm-15 6A4.505 4.505 0 0 1 5 24c0-2.482 2.019-4.5 4.5-4.5 2.482 0 4.5 2.018 4.5 4.5s-2.018 4.5-4.5 4.5Zm0-6a1.5 1.5 0 0 0 0 3 1.5 1.5 0 0 0 0-3ZM16.112 63.544V76h-1.638v-9.288L10.334 76H9.182l-4.158-9.306V76H3.386V63.544H5.15L9.758 73.84l4.608-10.296h1.746Zm7.08 12.618c-.924 0-1.764-.21-2.52-.63a4.58 4.58 0 0 1-1.764-1.782c-.42-.78-.63-1.68-.63-2.7 0-1.008.216-1.896.648-2.664a4.51 4.51 0 0 1 1.8-1.782c.756-.42 1.602-.63 2.538-.63.936 0 1.782.21 2.538.63.756.408 1.35.996 1.782 1.764.444.768.666 1.662.666 2.682s-.228 1.92-.684 2.7a4.634 4.634 0 0 1-1.818 1.782c-.768.42-1.62.63-2.556.63Zm0-1.44c.588 0 1.14-.138 1.656-.414.516-.276.93-.69 1.242-1.242.324-.552.486-1.224.486-2.016s-.156-1.464-.468-2.016c-.312-.552-.72-.96-1.224-1.224a3.356 3.356 0 0 0-1.638-.414c-.6 0-1.152.138-1.656.414-.492.264-.888.672-1.188 1.224-.3.552-.45 1.224-.45 2.016 0 .804.144 1.482.432 2.034.3.552.696.966 1.188 1.242a3.372 3.372 0 0 0 1.62.396Zm8.85-6.984a3.16 3.16 0 0 1 1.224-1.314c.54-.312 1.194-.468 1.962-.468v1.692h-.432c-1.836 0-2.754.996-2.754 2.988V76h-1.638v-9.864h1.638v1.602Zm14.076 2.952c0 .312-.018.642-.054.99H38.18c.06.972.39 1.734.99 2.286.612.54 1.35.81 2.214.81.708 0 1.296-.162 1.764-.486.48-.336.816-.78 1.008-1.332h1.764a4.284 4.284 0 0 1-1.584 2.322c-.792.588-1.776.882-2.952.882-.936 0-1.776-.21-2.52-.63a4.492 4.492 0 0 1-1.728-1.782c-.42-.78-.63-1.68-.63-2.7 0-1.02.204-1.914.612-2.682a4.254 4.254 0 0 1 1.71-1.764c.744-.42 1.596-.63 2.556-.63.936 0 1.764.204 2.484.612.72.408 1.272.972 1.656 1.692.396.708.594 1.512.594 2.412Zm-1.692-.342c0-.624-.138-1.158-.414-1.602a2.605 2.605 0 0 0-1.134-1.026c-.468-.24-.99-.36-1.566-.36-.828 0-1.536.264-2.124.792-.576.528-.906 1.26-.99 2.196h6.228Z" fill="#CDCFD1"/></svg>