<svg width="52" height="83" fill="none" xmlns="http://www.w3.org/2000/svg"><path d="M33 7H18.88a2 2 0 0 0-2 1.876l-1.876 30a1.998 1.998 0 0 0 2 2.126h4.09a2 2 0 0 0 1.972-1.672l2.874-17.246 2.874 17.246A2 2 0 0 0 30.786 41h4.09a2 2 0 0 0 2-2.124L35 8.876A2 2 0 0 0 33 7Zm0 2 .22 3.522A3.847 3.847 0 0 1 30.94 9H33ZM20.94 9a3.849 3.849 0 0 1-2.28 3.522L18.88 9h2.06Zm9.846 30-3.86-23.164a1 1 0 0 0-1.972 0L21.094 39h-4.09l1.512-24.17A6.454 6.454 0 0 0 22.94 9h2v3a1 1 0 1 0 2 0V9h2a6.454 6.454 0 0 0 4.424 5.83L34.876 39h-4.09ZM10.274 67.126c0 1.044-.36 1.914-1.08 2.61-.708.684-1.794 1.026-3.258 1.026H3.524V76H1.886V63.454h4.05c1.416 0 2.49.342 3.222 1.026.744.684 1.116 1.566 1.116 2.646Zm-4.338 2.286c.912 0 1.584-.198 2.016-.594.432-.396.648-.96.648-1.692 0-1.548-.888-2.322-2.664-2.322H3.524v4.608h2.412Zm5.762 1.62c0-1.008.204-1.89.612-2.646a4.446 4.446 0 0 1 1.674-1.782c.72-.42 1.518-.63 2.394-.63.864 0 1.614.186 2.25.558.636.372 1.11.84 1.422 1.404v-1.8h1.656V76H20.05v-1.836c-.324.576-.81 1.056-1.458 1.44-.636.372-1.38.558-2.232.558-.876 0-1.668-.216-2.376-.648-.708-.432-1.266-1.038-1.674-1.818-.408-.78-.612-1.668-.612-2.664Zm8.352.018c0-.744-.15-1.392-.45-1.944a3.098 3.098 0 0 0-1.224-1.26 3.211 3.211 0 0 0-1.674-.45c-.612 0-1.17.144-1.674.432a3.134 3.134 0 0 0-1.206 1.26c-.3.552-.45 1.2-.45 1.944 0 .756.15 1.416.45 1.98.3.552.702.978 1.206 1.278a3.314 3.314 0 0 0 1.674.432c.612 0 1.17-.144 1.674-.432.516-.3.924-.726 1.224-1.278.3-.564.45-1.218.45-1.962Zm9.23-5.094c1.2 0 2.172.366 2.916 1.098.744.72 1.116 1.764 1.116 3.132V76h-1.62v-5.58c0-.984-.246-1.734-.738-2.25-.492-.528-1.164-.792-2.016-.792-.864 0-1.554.27-2.07.81-.504.54-.756 1.326-.756 2.358V76h-1.638v-9.864h1.638v1.404a3.266 3.266 0 0 1 1.314-1.17 4.16 4.16 0 0 1 1.854-.414Zm8.706 1.53V73.3c0 .48.102.822.306 1.026.204.192.558.288 1.062.288h1.206V76h-1.476c-.912 0-1.596-.21-2.052-.63-.456-.42-.684-1.11-.684-2.07v-5.814H35.07v-1.35h1.278v-2.484h1.638v2.484h2.574v1.35h-2.574Zm8.05 8.676c-.756 0-1.434-.126-2.034-.378-.6-.264-1.074-.624-1.422-1.08a2.92 2.92 0 0 1-.576-1.602h1.692c.048.492.276.894.684 1.206.42.312.966.468 1.638.468.624 0 1.116-.138 1.476-.414.36-.276.54-.624.54-1.044 0-.432-.192-.75-.576-.954-.384-.216-.978-.426-1.782-.63a14.665 14.665 0 0 1-1.8-.576 3.418 3.418 0 0 1-1.188-.882c-.324-.396-.486-.912-.486-1.548 0-.504.15-.966.45-1.386.3-.42.726-.75 1.278-.99.552-.252 1.182-.378 1.89-.378 1.092 0 1.974.276 2.646.828.672.552 1.032 1.308 1.08 2.268h-1.638c-.036-.516-.246-.93-.63-1.242-.372-.312-.876-.468-1.512-.468-.588 0-1.056.126-1.404.378-.348.252-.522.582-.522.99 0 .324.102.594.306.81.216.204.48.372.792.504.324.12.768.258 1.332.414.708.192 1.284.384 1.728.576.444.18.822.456 1.134.828.324.372.492.858.504 1.458 0 .54-.15 1.026-.45 1.458-.3.432-.726.774-1.278 1.026-.54.24-1.164.36-1.872.36Z" fill="#CDCFD1"/></svg>