<svg width="49" height="83" fill="none" xmlns="http://www.w3.org/2000/svg"><path d="M17.586 39h14a2 2 0 0 0 2-2V20.414L35.172 22A2.046 2.046 0 0 0 38 22l2.586-2.586a2 2 0 0 0 0-2.828l-6.708-6.708A2.98 2.98 0 0 0 31.758 9H17.414a2.98 2.98 0 0 0-2.12.878l-6.708 6.708a2 2 0 0 0 0 2.828L11.172 22A2.046 2.046 0 0 0 14 22l1.586-1.586V37a2 2 0 0 0 2 2Zm9.816-28a2.982 2.982 0 0 1-5.632 0h5.632Zm-14.816 9.586L10 18l6.708-6.708a1 1 0 0 1 .706-.292h2.274a5 5 0 0 0 9.8 0h2.274a1 1 0 0 1 .706.292L39.172 18l-2.586 2.586-3.292-3.294a1 1 0 0 0-1.708.708v19h-14V18a1 1 0 0 0-1.708-.708l-3.292 3.294ZM9.864 76.126c-.828 0-1.572-.144-2.232-.432-.648-.3-1.158-.708-1.53-1.224a3.178 3.178 0 0 1-.576-1.818h1.746c.06.588.3 1.086.72 1.494.432.396 1.056.594 1.872.594.78 0 1.392-.192 1.836-.576.456-.396.684-.9.684-1.512 0-.48-.132-.87-.396-1.17a2.53 2.53 0 0 0-.99-.684c-.396-.156-.93-.324-1.602-.504-.828-.216-1.494-.432-1.998-.648a3.318 3.318 0 0 1-1.278-1.008c-.348-.468-.522-1.092-.522-1.872 0-.684.174-1.29.522-1.818.348-.528.834-.936 1.458-1.224.636-.288 1.362-.432 2.178-.432 1.176 0 2.136.294 2.88.882.756.588 1.182 1.368 1.278 2.34h-1.8c-.06-.48-.312-.9-.756-1.26-.444-.372-1.032-.558-1.764-.558-.684 0-1.242.18-1.674.54-.432.348-.648.84-.648 1.476 0 .456.126.828.378 1.116.264.288.582.51.954.666.384.144.918.312 1.602.504.828.228 1.494.456 1.998.684.504.216.936.558 1.296 1.026.36.456.54 1.08.54 1.872 0 .612-.162 1.188-.486 1.728-.324.54-.804.978-1.44 1.314-.636.336-1.386.504-2.25.504Zm11.482-10.17c.744 0 1.416.162 2.017.486.6.312 1.067.786 1.404 1.422.348.636.521 1.41.521 2.322V76h-1.62v-5.58c0-.984-.245-1.734-.738-2.25-.491-.528-1.163-.792-2.015-.792-.864 0-1.555.27-2.07.81-.505.54-.756 1.326-.756 2.358V76H16.45V62.68h1.637v4.86a3.24 3.24 0 0 1 1.332-1.17c.576-.276 1.218-.414 1.926-.414Zm7.464-1.422c-.312 0-.576-.108-.792-.324a1.077 1.077 0 0 1-.324-.792c0-.312.108-.576.324-.792.216-.216.48-.324.792-.324.3 0 .552.108.756.324.216.216.324.48.324.792 0 .312-.108.576-.324.792a.998.998 0 0 1-.756.324Zm.792 1.602V76h-1.638v-9.864h1.638Zm4.43 1.602a3.16 3.16 0 0 1 1.224-1.314c.54-.312 1.194-.468 1.962-.468v1.692h-.432c-1.836 0-2.754.996-2.754 2.988V76h-1.638v-9.864h1.638v1.602Zm7.075-.252V73.3c0 .48.102.822.306 1.026.204.192.558.288 1.062.288h1.206V76h-1.476c-.912 0-1.596-.21-2.052-.63-.456-.42-.684-1.11-.684-2.07v-5.814H38.19v-1.35h1.278v-2.484h1.638v2.484h2.574v1.35h-2.574Z" fill="#CDCFD1"/></svg>