<svg width="56" height="83" fill="none" xmlns="http://www.w3.org/2000/svg"><path d="M43 14.061H32.62a1.988 1.988 0 0 0-1.746 1.042 4 4 0 1 0-6.942 3.492c-.24.05-1.63.37-2.172.496a1 1 0 0 0 .484 1.94c1.74-.5 3.532-.803 5.34-.906a8.264 8.264 0 0 1-5.336 1.936A11.57 11.57 0 0 0 11.03 30.82c-.054.218-.018 1.094-.03 2.242a2.999 2.999 0 0 0 3 3h17.172a3.022 3.022 0 0 0 2.12-.878l.708-.708.708.708c.564.56 1.325.876 2.12.878H42a3 3 0 0 0 3-3v-17a2 2 0 0 0-2-2Zm-16 4a2 2 0 1 1 2-2v2h-2Zm-4.753 6c1-.001 1.995-.147 2.954-.432.341.4.706.782 1.092 1.14a1.001 1.001 0 1 0 1.416-1.416l-.552-.552c.25-.136.5-.274.738-.432l1.4 1.4a1.001 1.001 0 1 0 1.416-1.416l-1.254-1.252c.2-.2.4-.4.572-.6l1.266 1.268a1 1 0 0 0 1.416-1.416l-1.52-1.518c.654-1.154.754-1.456 1.43-2.774H43v14H13.373a9.546 9.546 0 0 1 8.874-6Zm19.754 10h-5.172c-.632 0-.858-.518-1.414-1a2.05 2.05 0 0 0-2.828 0c-.558.484-.784 1-1.414 1H14a1 1 0 0 1-1-1v-1h30v1a1 1 0 0 1-1 1ZM5.864 76.126c-.828 0-1.572-.144-2.232-.432-.648-.3-1.158-.708-1.53-1.224a3.178 3.178 0 0 1-.576-1.818h1.746c.06.588.3 1.086.72 1.494.432.396 1.056.594 1.872.594.78 0 1.392-.192 1.836-.576.456-.396.684-.9.684-1.512 0-.48-.132-.87-.396-1.17a2.53 2.53 0 0 0-.99-.684c-.396-.156-.93-.324-1.602-.504-.828-.216-1.494-.432-1.998-.648a3.318 3.318 0 0 1-1.278-1.008c-.348-.468-.522-1.092-.522-1.872 0-.684.174-1.29.522-1.818.348-.528.834-.936 1.458-1.224.636-.288 1.362-.432 2.178-.432 1.176 0 2.136.294 2.88.882.756.588 1.182 1.368 1.278 2.34h-1.8c-.06-.48-.312-.9-.756-1.26-.444-.372-1.032-.558-1.764-.558-.684 0-1.242.18-1.674.54-.432.348-.648.84-.648 1.476 0 .456.126.828.378 1.116.264.288.582.51.954.666.384.144.918.312 1.602.504.828.228 1.494.456 1.998.684.504.216.936.558 1.296 1.026.36.456.54 1.08.54 1.872 0 .612-.162 1.188-.486 1.728-.324.54-.804.978-1.44 1.314-.636.336-1.386.504-2.25.504Zm11.482-10.17c.744 0 1.416.162 2.017.486.6.312 1.067.786 1.404 1.422.348.636.521 1.41.521 2.322V76h-1.62v-5.58c0-.984-.245-1.734-.738-2.25-.491-.528-1.163-.792-2.015-.792-.864 0-1.554.27-2.07.81-.505.54-.757 1.326-.757 2.358V76h-1.637V62.68h1.637v4.86a3.24 3.24 0 0 1 1.333-1.17c.575-.276 1.218-.414 1.925-.414Zm10.92 10.206c-.924 0-1.764-.21-2.52-.63a4.58 4.58 0 0 1-1.764-1.782c-.42-.78-.63-1.68-.63-2.7 0-1.008.216-1.896.648-2.664a4.51 4.51 0 0 1 1.8-1.782c.756-.42 1.602-.63 2.538-.63.936 0 1.782.21 2.538.63.756.408 1.35.996 1.782 1.764.444.768.666 1.662.666 2.682s-.228 1.92-.684 2.7a4.634 4.634 0 0 1-1.818 1.782c-.768.42-1.62.63-2.556.63Zm0-1.44c.588 0 1.14-.138 1.656-.414.516-.276.93-.69 1.242-1.242.324-.552.486-1.224.486-2.016s-.156-1.464-.468-2.016c-.312-.552-.72-.96-1.224-1.224a3.356 3.356 0 0 0-1.638-.414c-.6 0-1.152.138-1.656.414-.492.264-.888.672-1.188 1.224-.3.552-.45 1.224-.45 2.016 0 .804.144 1.482.432 2.034.3.552.696.966 1.188 1.242a3.372 3.372 0 0 0 1.62.396Zm16.212-4.032c0 .312-.018.642-.054.99H36.54c.06.972.39 1.734.99 2.286.612.54 1.35.81 2.214.81.708 0 1.296-.162 1.764-.486.48-.336.816-.78 1.008-1.332h1.764a4.284 4.284 0 0 1-1.584 2.322c-.792.588-1.776.882-2.952.882-.936 0-1.776-.21-2.52-.63a4.492 4.492 0 0 1-1.728-1.782c-.42-.78-.63-1.68-.63-2.7 0-1.02.204-1.914.612-2.682a4.254 4.254 0 0 1 1.71-1.764c.744-.42 1.596-.63 2.556-.63.936 0 1.764.204 2.484.612.72.408 1.272.972 1.656 1.692.396.708.594 1.512.594 2.412Zm-1.692-.342c0-.624-.138-1.158-.414-1.602a2.605 2.605 0 0 0-1.134-1.026c-.468-.24-.99-.36-1.566-.36-.828 0-1.536.264-2.124.792-.576.528-.906 1.26-.99 2.196h6.228Zm7.346 5.814c-.756 0-1.434-.126-2.034-.378-.6-.264-1.074-.624-1.422-1.08a2.92 2.92 0 0 1-.576-1.602h1.692c.048.492.276.894.684 1.206.42.312.966.468 1.638.468.624 0 1.116-.138 1.476-.414.36-.276.54-.624.54-1.044 0-.432-.192-.75-.576-.954-.384-.216-.978-.426-1.782-.63a14.665 14.665 0 0 1-1.8-.576 3.418 3.418 0 0 1-1.188-.882c-.324-.396-.486-.912-.486-1.548 0-.504.15-.966.45-1.386.3-.42.726-.75 1.278-.99.552-.252 1.182-.378 1.89-.378 1.092 0 1.974.276 2.646.828.672.552 1.032 1.308 1.08 2.268h-1.638c-.036-.516-.246-.93-.63-1.242-.372-.312-.876-.468-1.512-.468-.588 0-1.056.126-1.404.378-.348.252-.522.582-.522.99 0 .324.102.594.306.81.216.204.48.372.792.504.324.12.768.258 1.332.414.708.192 1.284.384 1.728.576.444.18.822.456 1.134.828.324.372.492.858.504 1.458 0 .54-.15 1.026-.45 1.458-.3.432-.726.774-1.278 1.026-.54.24-1.164.36-1.872.36Z" fill="#CDCFD1"/></svg>