<svg width="49" height="83" fill="none" xmlns="http://www.w3.org/2000/svg"><path d="M36.5 12.838V10a2 2 0 0 0-2-2h-18a2 2 0 0 0-2 2v2.838C12.914 18.15 11.394 20.542 11.476 25c.086 4.652 1.756 6.854 4.844 15.704A2.012 2.012 0 0 0 18.194 42h8.458a2 2 0 0 0 1.972-1.672l.876-5.246.944 5.666A1.498 1.498 0 0 0 31.924 42h1.23a1.5 1.5 0 0 0 1.4-.972c3.15-9 4.882-11.34 4.968-16.026.084-4.47-1.45-6.9-3.022-12.164ZM34.5 10v2h-18v-2h18Zm-1.694 30h-.46l-1.86-11.164a1 1 0 0 0-1.972 0L26.652 40h-8.46c-3.164-9-4.63-10.874-4.716-15-.082-3.96 1.258-6.03 2.746-11h18.556c1.48 4.94 2.82 7.03 2.746 10.964-.076 4.158-1.564 6.06-4.718 15.036ZM10.864 76.126c-.828 0-1.572-.144-2.232-.432-.648-.3-1.158-.708-1.53-1.224a3.178 3.178 0 0 1-.576-1.818h1.746c.06.588.3 1.086.72 1.494.432.396 1.056.594 1.872.594.78 0 1.392-.192 1.836-.576.456-.396.684-.9.684-1.512 0-.48-.132-.87-.396-1.17a2.53 2.53 0 0 0-.99-.684c-.396-.156-.93-.324-1.602-.504-.828-.216-1.494-.432-1.998-.648a3.318 3.318 0 0 1-1.278-1.008c-.348-.468-.522-1.092-.522-1.872 0-.684.174-1.29.522-1.818.348-.528.834-.936 1.458-1.224.636-.288 1.362-.432 2.178-.432 1.176 0 2.136.294 2.88.882.756.588 1.182 1.368 1.278 2.34h-1.8c-.06-.48-.312-.9-.756-1.26-.444-.372-1.032-.558-1.764-.558-.684 0-1.242.18-1.674.54-.432.348-.648.84-.648 1.476 0 .456.126.828.378 1.116.264.288.582.51.954.666.384.144.918.312 1.602.504.828.228 1.494.456 1.998.684.504.216.936.558 1.296 1.026.36.456.54 1.08.54 1.872 0 .612-.162 1.188-.486 1.728-.324.54-.804.978-1.44 1.314-.636.336-1.386.504-2.25.504ZM22.959 76l-3.87-4.356V76H17.45V62.68h1.637v7.83l3.799-4.374h2.285L20.53 71.05 25.19 76h-2.232Zm4.601-11.466c-.312 0-.576-.108-.792-.324a1.077 1.077 0 0 1-.324-.792c0-.312.108-.576.324-.792.216-.216.48-.324.792-.324.3 0 .552.108.756.324.216.216.324.48.324.792 0 .312-.108.576-.324.792a.998.998 0 0 1-.756.324Zm.792 1.602V76h-1.638v-9.864h1.638Zm4.43 1.602a3.16 3.16 0 0 1 1.224-1.314c.54-.312 1.194-.468 1.962-.468v1.692h-.432c-1.836 0-2.754.996-2.754 2.988V76h-1.638v-9.864h1.638v1.602Zm7.075-.252V73.3c0 .48.102.822.306 1.026.204.192.558.288 1.062.288h1.206V76h-1.476c-.912 0-1.596-.21-2.052-.63-.456-.42-.684-1.11-.684-2.07v-5.814H36.94v-1.35h1.278v-2.484h1.638v2.484h2.574v1.35h-2.574Z" fill="#CDCFD1"/></svg>