<svg aria-hidden="true" style="position:absolute;width:0;height:0;overflow:hidden" xmlns="http://www.w3.org/2000/svg"><defs><symbol id="icon-accesories" viewBox="0 0 38 32"><path d="M19.084 3.855c-3.676 0-6.554 1.696-6.554 3.855v3.084c0 1.76 1.999 3.282 4.872 3.724.162.085.342.131.525.132h2.313c.183-.001.363-.046.525-.132 2.873-.442 4.872-1.963 4.872-3.724V7.71c0-2.159-2.878-3.855-6.554-3.855zm-5.783 6.94V9.552a6.652 6.652 0 0 0 3.639 1.807 1.149 1.149 0 0 0-.169.593v1.542c0 .04.008.077.012.117-2.058-.49-3.481-1.607-3.481-2.816zm7.326 2.699a.402.402 0 0 1-.385.385h-.771v-.771h.386c.102 0 .2-.041.273-.113s.113-.17.113-.273c0-.102-.041-.2-.113-.273s-.17-.113-.273-.113h-.386v-.771h.771c.102 0 .2.041.273.113s.113.17.113.273v1.542zm-3.085 0v-1.542c0-.102.041-.2.113-.273s.17-.113.273-.113h.771v.771c-.102 0-.2.041-.273.113s-.113.17-.113.273c0 .102.041.2.113.273s.17.113.273.113v.771h-.771a.402.402 0 0 1-.386-.386zm3.766-3.381c.077-.934-.902-1.501-1.838-1.609v-.771c1.813.158 3.037 1.385 1.838 2.38zm-3.766-.089c0-.364.659-.771 1.542-.771.839 0 1.465.407 1.465.771s-.626.771-1.465.771c-.628 0-1.542-.292-1.542-.771zm1.157-1.517c-1.106.12-1.928.739-1.928 1.515-1.08-1.041.268-2.145 1.928-2.289v.773zm3.707 1.388c.092-.202.143-.42.148-.642 0-1.298-1.524-2.313-3.47-2.313s-3.47 1.016-3.47 2.313c.005.223.055.442.148.645a1.814 1.814 0 0 1-.919-1.415c0-1.254 1.942-2.313 4.241-2.313s4.241 1.059 4.241 2.313a1.811 1.811 0 0 1-.919 1.415v-.002zm2.461.9c0 1.209-1.423 2.326-3.481 2.816.004-.039.012-.077.012-.117v-1.542a1.142 1.142 0 0 0-.169-.593 6.652 6.652 0 0 0 3.639-1.807v1.243zm-.997-1.379c.147-.289.225-.609.226-.934 0-1.73-2.201-3.084-5.012-3.084s-5.012 1.355-5.012 3.084c.001.325.079.644.226.934a2.257 2.257 0 0 1-.997-1.705c0-1.672 2.649-3.084 5.783-3.084s5.783 1.413 5.783 3.084a2.24 2.24 0 0 1-.997 1.705zM3.586 28.226h-2.11l-.389 1.076H.421l1.749-4.809h.729l1.742 4.809h-.666l-.389-1.076zm-.18-.514-.874-2.443-.874 2.443h1.749zm1.761-.319c0-.393.079-.736.236-1.027.157-.296.375-.525.652-.687.282-.162.604-.243.965-.243.467 0 .851.113 1.152.34a1.6 1.6 0 0 1 .604.944h-.68a.97.97 0 0 0-.382-.548c-.185-.134-.416-.201-.694-.201-.361 0-.652.125-.874.375-.222.245-.333.595-.333 1.048 0 .458.111.812.333 1.062s.514.375.874.375c.278 0 .509-.065.694-.194s.312-.315.382-.555h.68a1.687 1.687 0 0 1-.611.937c-.305.231-.687.347-1.145.347-.361 0-.682-.081-.965-.243-.278-.162-.495-.391-.652-.687s-.236-.643-.236-1.041zm4.216 0c0-.393.079-.736.236-1.027.157-.296.375-.525.652-.687.282-.162.604-.243.965-.243.467 0 .851.113 1.152.34a1.6 1.6 0 0 1 .604.944h-.68a.97.97 0 0 0-.382-.548c-.185-.134-.416-.201-.694-.201-.361 0-.652.125-.874.375-.222.245-.333.595-.333 1.048 0 .458.111.812.333 1.062s.514.375.874.375c.278 0 .509-.065.694-.194s.312-.315.382-.555h.68a1.687 1.687 0 0 1-.611.937c-.305.231-.687.347-1.145.347-.361 0-.682-.081-.965-.243-.278-.162-.495-.391-.652-.687s-.236-.643-.236-1.041zm7.921-.139c0 .12-.007.248-.021.382h-3.04c.023.375.15.669.382.881.236.208.52.312.854.312.273 0 .5-.062.68-.187.185-.13.315-.301.389-.514h.68a1.646 1.646 0 0 1-.611.895c-.305.227-.685.34-1.138.34-.361 0-.685-.081-.972-.243a1.734 1.734 0 0 1-.666-.687c-.162-.301-.243-.648-.243-1.041s.079-.738.236-1.034c.157-.296.377-.523.659-.68.287-.162.615-.243.985-.243.361 0 .68.079.958.236s.49.375.638.652c.153.273.229.583.229.93zm-.652-.132c0-.241-.053-.446-.16-.618a1.002 1.002 0 0 0-.437-.396 1.298 1.298 0 0 0-.604-.139c-.319 0-.592.102-.819.305-.222.204-.349.486-.382.847h2.401zm2.832 2.242a2.01 2.01 0 0 1-.784-.146 1.371 1.371 0 0 1-.548-.416 1.126 1.126 0 0 1-.222-.618h.652c.018.19.106.345.264.465.162.12.372.18.632.18.241 0 .43-.053.569-.16s.208-.241.208-.402a.39.39 0 0 0-.222-.368c-.148-.083-.377-.164-.687-.243a5.644 5.644 0 0 1-.694-.222 1.325 1.325 0 0 1-.458-.34c-.125-.153-.187-.352-.187-.597 0-.194.058-.372.174-.534s.28-.289.493-.382c.213-.097.456-.146.729-.146.421 0 .761.106 1.02.319s.398.504.416.874h-.632a.648.648 0 0 0-.243-.479c-.143-.12-.338-.18-.583-.18-.227 0-.407.049-.541.146s-.201.224-.201.382c0 .125.039.229.118.312.083.079.185.143.305.194.125.046.296.099.514.16.273.074.495.148.666.222.171.069.317.176.437.319.125.143.19.331.194.562 0 .208-.058.396-.174.562s-.28.298-.493.396a1.755 1.755 0 0 1-.722.139zm3.938 0a1.97 1.97 0 0 1-.972-.243 1.761 1.761 0 0 1-.68-.687 2.163 2.163 0 0 1-.243-1.041c0-.389.083-.731.25-1.027a1.73 1.73 0 0 1 .694-.687c.291-.162.618-.243.979-.243s.687.081.979.243c.291.157.52.384.687.68.171.296.257.641.257 1.034s-.088.74-.264 1.041c-.171.296-.405.525-.701.687s-.625.243-.985.243zm0-.556c.227 0 .44-.053.638-.16s.359-.266.479-.479c.125-.213.187-.472.187-.777s-.06-.564-.18-.777a1.159 1.159 0 0 0-.472-.472 1.299 1.299 0 0 0-.632-.16 1.3 1.3 0 0 0-.638.16c-.19.102-.342.259-.458.472s-.174.472-.174.777c0 .31.056.571.167.784.116.213.268.372.458.479a1.3 1.3 0 0 0 .625.153zm3.412-2.692c.111-.217.268-.386.472-.507.208-.12.46-.18.756-.18v.652h-.167c-.708 0-1.062.384-1.062 1.152v2.068h-.632v-3.803h.632v.618zm2.283-1.235c-.12 0-.222-.042-.305-.125s-.125-.185-.125-.305.042-.222.125-.305.185-.125.305-.125c.116 0 .213.042.291.125.083.083.125.185.125.305s-.042.222-.125.305a.387.387 0 0 1-.291.125zm.306.617v3.803h-.632v-3.803h.632zm4.546 1.756c0 .12-.007.248-.021.382h-3.04c.023.375.15.669.382.881.236.208.52.312.854.312.273 0 .5-.062.68-.187.185-.13.315-.301.389-.514h.68a1.646 1.646 0 0 1-.611.895c-.305.227-.685.34-1.138.34-.361 0-.685-.081-.972-.243a1.734 1.734 0 0 1-.666-.687c-.162-.301-.243-.648-.243-1.041s.079-.738.236-1.034c.157-.296.377-.523.659-.68.287-.162.615-.243.985-.243.361 0 .68.079.958.236s.49.375.638.652c.153.273.229.583.229.93zm-.653-.132c0-.241-.053-.446-.16-.618a1.002 1.002 0 0 0-.437-.396 1.298 1.298 0 0 0-.604-.139c-.319 0-.592.102-.819.305-.222.204-.349.486-.382.847h2.401zm2.833 2.242a2.01 2.01 0 0 1-.784-.146 1.371 1.371 0 0 1-.548-.416 1.126 1.126 0 0 1-.222-.618h.652c.019.19.106.345.264.465.162.12.372.18.632.18.241 0 .43-.053.569-.16s.208-.241.208-.402a.39.39 0 0 0-.222-.368c-.148-.083-.377-.164-.687-.243a5.644 5.644 0 0 1-.694-.222 1.325 1.325 0 0 1-.458-.34c-.125-.153-.187-.352-.187-.597 0-.194.058-.372.173-.534s.28-.289.493-.382c.213-.097.456-.146.729-.146.421 0 .761.106 1.02.319s.398.504.416.874h-.632a.648.648 0 0 0-.243-.479c-.143-.12-.338-.18-.583-.18-.227 0-.407.049-.541.146s-.201.224-.201.382c0 .125.039.229.118.312.083.079.185.143.305.194.125.046.296.099.514.16.273.074.495.148.666.222.171.069.317.176.437.319.125.143.19.331.194.562 0 .208-.058.396-.173.562s-.28.298-.493.396a1.755 1.755 0 0 1-.722.139z"/></symbol><symbol id="icon-Arrow" viewBox="0 0 33 32"><path d="M7.226 15.484a1.035 1.035 0 0 1 1.032-1.032h14.028l-1.342-1.332a1.038 1.038 0 1 1 1.466-1.466l3.097 3.097a1.035 1.035 0 0 1 .217 1.125 1.035 1.035 0 0 1-.95.64H8.258a1.035 1.035 0 0 1-1.032-1.032z"/><path d="M20.645 18.581a1.043 1.043 0 0 1 .3-.733l3.097-3.097a1.038 1.038 0 1 1 1.466 1.466l-3.097 3.097a1.02 1.02 0 0 1-.733.305 1.041 1.041 0 0 1-.733-.305 1.043 1.043 0 0 1-.3-.733z"/></symbol><symbol id="icon-ArrowLeft" viewBox="0 0 32 32"><path d="M25 16.133c0-.274-.105-.536-.293-.73s-.442-.302-.707-.302H10.41l1.3-1.332c.188-.194.294-.458.294-.733s-.106-.539-.294-.733c-.188-.194-.444-.304-.71-.304s-.522.109-.71.304l-3 3.097c-.139.145-.233.33-.27.53s-.016.407.06.595c.075.188.202.35.366.464s.356.175.554.176h16c.265 0 .52-.109.707-.302s.293-.456.293-.73z"/><path d="M12 19.23a1.047 1.047 0 0 0-.29-.733l-3-3.097a.978.978 0 0 0-1.42 0 1.058 1.058 0 0 0 0 1.466l3 3.097a.979.979 0 0 0 1.42 0 1.05 1.05 0 0 0 .29-.733z"/></symbol><symbol id="icon-ArrowRight" viewBox="0 0 32 32"><path d="M7 16.133c0-.274.105-.536.293-.73s.442-.302.707-.302h13.59l-1.3-1.332c-.188-.194-.294-.458-.294-.733s.106-.539.294-.733c.188-.194.444-.304.71-.304s.522.109.71.304l3 3.097c.139.145.233.33.27.53s.016.407-.06.595c-.075.188-.202.35-.366.464s-.356.175-.554.176H8c-.265 0-.52-.109-.707-.302S7 16.407 7 16.133z"/><path d="M20 19.23a1.047 1.047 0 0 1 .29-.733l3-3.097a.978.978 0 0 1 1.42 0 1.058 1.058 0 0 1 0 1.466l-3 3.097a.979.979 0 0 1-1.42 0 1.05 1.05 0 0 1-.29-.733z"/></symbol><symbol id="icon-Broken" viewBox="0 0 32 32"><path d="M7.119 1.591c-.193.863-.383 1.727-.575 2.59l-.937 4.231-.233 1.047c-.217.989-.325 2.011-.266 3.025a11.086 11.086 0 0 0 2.92 6.882 10.703 10.703 0 0 0 3.018 2.271 11.283 11.283 0 0 0 4.087 1.154c2.602.233 5.323-.554 7.396-2.143 1.062-.814 1.968-1.766 2.688-2.899a10.7 10.7 0 0 0 1.405-3.364c.272-1.206.358-2.464.205-3.695a17.52 17.52 0 0 0-.291-1.619l-.845-3.811-.771-3.478-.043-.193c-.058-.257-.239-.481-.438-.637a1.202 1.202 0 0 0-.741-.263H10.191c-.621 0-1.246-.009-1.87 0h-.024c-.64 0-1.255.563-1.224 1.224.031.664.539 1.224 1.224 1.224H21.804c.621 0 1.246.012 1.87 0h.024l-1.182-.9c.211.958.426 1.916.637 2.878l.961 4.329c.113.505.233 1.01.3 1.524-.015-.107-.031-.217-.043-.325.113.857.11 1.72-.003 2.578.015-.107.031-.217.043-.325a9.855 9.855 0 0 1-.667 2.449c.04-.098.083-.196.122-.294a9.869 9.869 0 0 1-1.255 2.158l.193-.248a9.775 9.775 0 0 1-1.76 1.76l.248-.193a9.878 9.878 0 0 1-2.134 1.246c.098-.04.196-.083.294-.122a9.821 9.821 0 0 1-2.48.68c.107-.015.217-.031.325-.043a9.982 9.982 0 0 1-2.596 0c.107.015.217.031.324.043a9.78 9.78 0 0 1-2.48-.68c.098.04.196.083.294.122a9.881 9.881 0 0 1-2.134-1.246l.248.193a9.873 9.873 0 0 1-1.76-1.76l.193.248a9.92 9.92 0 0 1-1.255-2.158c.04.098.083.196.122.294a9.812 9.812 0 0 1-.667-2.449c.015.107.031.217.043.325a9.845 9.845 0 0 1-.003-2.578c-.015.107-.031.217-.043.325.061-.456.165-.906.263-1.356.135-.612.269-1.221.407-1.834l.995-4.485c.08-.352.156-.704.236-1.056.07-.321.046-.655-.122-.943-.15-.254-.441-.496-.732-.563-.312-.07-.664-.055-.943.122-.266.175-.499.425-.569.738z"/><path d="M14.775 21.617v8.467c0 .64.563 1.255 1.225 1.224.664-.031 1.224-.539 1.224-1.224v-8.467c0-.64-.563-1.255-1.224-1.224-.664.031-1.224.539-1.224 1.224z"/><path d="M10.291 31.309h10.004c.462 0 .928.009 1.39 0h.018c.64 0 1.255-.563 1.224-1.224-.031-.664-.539-1.224-1.224-1.224H11.699c-.462 0-.928-.009-1.39 0h-.018c-.64 0-1.255.563-1.224 1.224.031.664.539 1.224 1.224 1.224zm7.601-18.425-.689-1.959c-.364-1.041-.729-2.082-1.096-3.122-.083-.239-.168-.474-.251-.713L14.35 8.596c.771.11 1.54.217 2.311.328l.331.046c.217.058.435.058.652 0 .208-.058.389-.162.542-.315.325-.325.404-.756.315-1.191-.138-.658-.272-1.319-.41-1.978l-.658-3.168c-.049-.242-.101-.484-.15-.722-.061-.291-.312-.585-.563-.732-.263-.153-.649-.217-.943-.122-.297.095-.582.279-.732.563a1.34 1.34 0 0 0-.122.943c.138.658.272 1.319.41 1.978l.658 3.168c.049.242.101.484.15.722l1.506-1.506c-.771-.11-1.54-.217-2.311-.328l-.331-.046a1.243 1.243 0 0 0-.652 0 1.214 1.214 0 0 0-.542.315c-.294.294-.456.787-.315 1.191l.689 1.959c.364 1.041.729 2.082 1.096 3.122.083.239.168.474.251.713.107.303.279.566.563.732.263.153.649.217.943.122.297-.095.582-.279.732-.563.147-.279.233-.634.122-.943z"/></symbol><symbol id="icon-Call" viewBox="0 0 31 32"><path d="M24.883 17.009c-.282 0-.576-.09-.858-.154a12.233 12.233 0 0 1-1.677-.499 2.558 2.558 0 0 0-3.175 1.28l-.282.576a15.616 15.616 0 0 1-3.405-2.56 15.56 15.56 0 0 1-2.56-3.405l.538-.358a2.557 2.557 0 0 0 1.279-3.175 13.184 13.184 0 0 1-.499-1.677 9.747 9.747 0 0 1-.154-.87 3.844 3.844 0 0 0-3.84-3.187H6.41a3.823 3.823 0 0 0-2.919 1.303 3.846 3.846 0 0 0-.921 3.061 24.322 24.322 0 0 0 21.145 21.069h.486a3.842 3.842 0 0 0 2.56-.973 3.838 3.838 0 0 0 1.28-2.88v-3.84a3.84 3.84 0 0 0-3.162-3.712zm.64 7.68a1.278 1.278 0 0 1-.435.96 1.36 1.36 0 0 1-1.05.32A21.756 21.756 0 0 1 5.209 7.051a1.404 1.404 0 0 1 .32-1.05 1.279 1.279 0 0 1 .96-.435h3.84a1.281 1.281 0 0 1 1.28 1.011c.051.35.115.695.192 1.037.148.675.345 1.338.589 1.984l-1.792.832a1.281 1.281 0 0 0-.628 1.703 18.545 18.545 0 0 0 8.96 8.96c.312.128.661.128.973 0a1.273 1.273 0 0 0 .73-.666l.794-1.792c.662.237 1.337.433 2.022.589.341.077.687.141 1.037.192a1.278 1.278 0 0 1 1.011 1.28l.026 3.994z"/></symbol><symbol id="icon-Card" viewBox="0 0 32 32"><path d="M28.435 7.184v15.535c0 .692.003 1.384 0 2.076 0 .064-.003.126-.012.19.015-.107.031-.217.043-.325-.015.11-.043.214-.083.318.04-.098.083-.196.122-.294a1.42 1.42 0 0 1-.181.312l.193-.248a1.387 1.387 0 0 1-.227.226l.248-.193a1.482 1.482 0 0 1-.312.181c.098-.04.196-.083.294-.122a1.46 1.46 0 0 1-.318.083c.107-.015.217-.031.325-.043-.26.031-.533.012-.796.012H3.676a1.52 1.52 0 0 1-.202-.012c.107.015.217.031.325.043a1.405 1.405 0 0 1-.318-.083c.098.04.196.083.294.122a1.42 1.42 0 0 1-.312-.181l.248.193a1.47 1.47 0 0 1-.227-.226l.193.248a1.482 1.482 0 0 1-.181-.312c.04.098.083.196.122.294a1.46 1.46 0 0 1-.083-.318c.015.107.031.217.043.325-.021-.202-.012-.407-.012-.609V9.302c0-.698-.003-1.396 0-2.097 0-.064.003-.126.012-.19-.015.107-.031.217-.043.324.015-.11.043-.214.083-.318-.04.098-.083.196-.122.294a1.42 1.42 0 0 1 .181-.312l-.193.248c.067-.083.141-.159.227-.227l-.248.193c.098-.073.202-.135.312-.181-.098.04-.196.083-.294.122a1.46 1.46 0 0 1 .318-.083c-.107.015-.217.031-.325.043.26-.031.533-.012.796-.012H28.324c.067 0 .135.003.202.012-.107-.015-.217-.031-.325-.043.11.015.214.043.318.083-.098-.04-.196-.083-.294-.122.113.049.217.107.312.181l-.248-.193c.083.067.159.141.227.227l-.193-.248c.073.098.135.202.181.312-.04-.098-.083-.196-.122-.294.04.104.067.208.083.318-.015-.107-.031-.217-.043-.325.009.055.012.11.012.168.006.318.132.64.358.866.211.211.56.373.866.358.655-.031 1.237-.539 1.224-1.224a2.602 2.602 0 0 0-.713-1.76c-.45-.478-1.065-.713-1.708-.765-.077-.006-.156-.003-.236-.003H3.714a2.84 2.84 0 0 0-1.218.279 2.376 2.376 0 0 0-1.114 1.123c-.168.373-.266.719-.269 1.136V24.639c0 .089-.003.178.003.266.043.646.282 1.258.753 1.714s1.096.713 1.751.726c.187.003.37 0 .557 0h24.118a2.75 2.75 0 0 0 1.283-.312c.817-.422 1.301-1.329 1.31-2.229.003-.309 0-.615 0-.924V7.184c0-.64-.563-1.255-1.224-1.224-.664.031-1.228.539-1.228 1.224z"/><path d="M28.435 10.514v4.197l1.224-1.225H3.445c-.355 0-.71-.006-1.062 0h-.046l1.224 1.224v-4.197l-1.224 1.225h26.215c.355 0 .71.003 1.062 0h.046c.64 0 1.255-.563 1.224-1.224-.031-.664-.539-1.224-1.224-1.224H3.446c-.355 0-.71-.003-1.062 0h-.046c-.661 0-1.224.56-1.224 1.224v4.197c0 .661.56 1.225 1.224 1.225h26.215c.355 0 .71.003 1.062 0h.046c.661 0 1.224-.56 1.224-1.224v-4.197c0-.64-.563-1.255-1.224-1.225-.661.028-1.224.536-1.224 1.224zM6.773 21.529H14.337c.64 0 1.255-.563 1.225-1.224-.031-.664-.539-1.224-1.224-1.224H6.774c-.64 0-1.255.563-1.224 1.224.028.664.536 1.224 1.224 1.224z"/></symbol><symbol id="icon-Cart" viewBox="0 0 32 32"><path d="M11.333 25.333a1.997 1.997 0 0 0-1.848 1.235 2.003 2.003 0 0 0 .433 2.179 1.997 1.997 0 0 0 2.18.433 2.003 2.003 0 0 0 1.235-1.848 2 2 0 0 0-2-2zm14-4h-16a1.334 1.334 0 0 1 0-2.668h11.322a4.016 4.016 0 0 0 3.846-2.901l2.114-7.399a1.325 1.325 0 0 0-.217-1.169 1.338 1.338 0 0 0-1.065-.531H8.985a4.009 4.009 0 0 0-3.757-2.667H3.999a1.335 1.335 0 0 0-.943 2.277c.251.25.589.391.943.391h1.229a1.342 1.342 0 0 1 1.282.967l.207.726v.007l2.188 7.656a3.999 3.999 0 0 0-2.324 6.881A4.002 4.002 0 0 0 9.333 24h16a1.334 1.334 0 0 0 0-2.668zm-1.767-12-1.628 5.699a1.336 1.336 0 0 1-1.282.967h-8.982l-.34-1.19L9.77 9.332h13.797zm-1.566 16a1.997 1.997 0 0 0-1.848 1.235 2.003 2.003 0 0 0 .433 2.179 1.997 1.997 0 0 0 2.179.433 2.003 2.003 0 0 0 1.235-1.848 2 2 0 0 0-2-2z"/></symbol><symbol id="icon-content" viewBox="0 0 24 32"><path   d="M16.954 5.664a1.162 1.162 0 0 0-.709-.668l-1.822-.608-.487-.973a1.15 1.15 0 0 0-1.035-.639H10.77a1.15 1.15 0 0 0-1.035.639l-.487.973-1.822.608c-.16.053-.306.14-.428.256s-.218.256-.281.412L5.419 8.911a1.912 1.912 0 0 0-.138.716v4.715a.769.769 0 0 0 .771.771h.771a.775.775 0 0 0 .771-.771v-1.1l.386-1.286v.865c.023.435.155.857.386 1.226v1.066a.769.769 0 0 0 .771.771h5.398a.769.769 0 0 0 .771-.771v-1.066c.23-.369.363-.791.386-1.226v-.865l.386 1.286v1.1a.769.769 0 0 0 .771.771h.771a.769.769 0 0 0 .771-.771V9.627c0-.245-.046-.488-.138-.716l-1.299-3.248zm-.885.104a20.037 20.037 0 0 0-1.128 1.919c-.041.154-.006-.025-.02 4.342a1.157 1.157 0 0 1-1.157-1.157c0-.102-.041-.2-.113-.273s-.17-.113-.273-.113a.388.388 0 0 0-.386.386A1.925 1.925 0 0 0 14.92 12.8v.022a1.605 1.605 0 0 1-.238.749h-2.461V6.452l1.985-1.323c2.202.749 1.709.549 1.862.638zm-5.852-1.584.477.835-.671-.447.194-.388zm3.245 0 .194.386-.671.447.477-.833zm-.529-.629-1.096 1.914-1.093-1.914c.157-.008 2.03-.008 2.187 0h.003zM9.466 5.129l1.985 1.323v7.119H8.99a1.575 1.575 0 0 1-.238-.749V12.8a1.925 1.925 0 0 0 1.928-1.928c0-.102-.041-.2-.113-.273s-.17-.113-.273-.113a.388.388 0 0 0-.386.386 1.157 1.157 0 0 1-1.157 1.157c-.014-4.366.021-4.192-.02-4.342-.34-.66-.717-1.301-1.128-1.919.118-.069 1.076-.37 1.862-.638zm-3.413 9.213v-.771h.771v.771h-.771zm1.879-4.905L6.923 12.8h-.87V9.627c0-.147.028-.293.082-.429l1.051-2.626.794 1.323v1.21c0 .113-.016.225-.049.332zm1.205 5.676v-.771h5.398v.771H9.137zm6.555-6.009v-1.21l.794-1.323 1.051 2.627c.055.136.083.282.082.429V12.8h-.87L15.74 9.436a1.165 1.165 0 0 1-.049-.332zm1.156 5.238v-.771h.771v.771h-.771zM3.163 24.464v3.574c0 .398-.123.717-.368.958-.245.236-.569.354-.972.354-.407 0-.733-.12-.979-.361-.245-.245-.368-.578-.368-.999h.632c.005.236.065.428.18.576.12.148.298.222.534.222s.412-.069.527-.208a.832.832 0 0 0 .174-.541v-3.574h.638zm1.008 2.922c0-.389.079-.729.236-1.02a1.712 1.712 0 0 1 1.568-.93c.333 0 .622.072.867.215s.428.324.548.541v-.694h.638v3.803H7.39v-.708a1.505 1.505 0 0 1-.562.555 1.677 1.677 0 0 1-.861.215 1.72 1.72 0 0 1-1.561-.951 2.187 2.187 0 0 1-.236-1.027zm3.22.007c0-.287-.058-.537-.173-.75s-.273-.375-.472-.486c-.194-.116-.409-.174-.645-.174s-.451.056-.645.167c-.194.111-.349.273-.465.486s-.173.463-.173.75c0 .291.058.546.173.763.116.213.271.377.465.493.194.111.409.167.645.167s.451-.056.645-.167c.199-.116.356-.28.472-.493.116-.217.173-.47.173-.756zm1.47 0c0-.393.079-.736.236-1.027.157-.296.375-.525.652-.687.282-.162.604-.243.965-.243.467 0 .851.113 1.152.34a1.6 1.6 0 0 1 .604.944h-.68a.97.97 0 0 0-.382-.548c-.185-.134-.416-.201-.694-.201-.361 0-.652.125-.874.375-.222.245-.333.595-.333 1.048 0 .458.111.812.333 1.062s.514.375.874.375c.278 0 .509-.065.694-.194s.312-.315.382-.555h.68a1.687 1.687 0 0 1-.611.937c-.305.231-.687.347-1.145.347-.361 0-.682-.081-.965-.243-.278-.162-.495-.391-.652-.687s-.236-.643-.236-1.041zm6.575 1.908-1.492-1.679v1.679h-.632v-5.135h.632v3.019l1.464-1.686h.881l-1.79 1.895 1.797 1.908h-.861zm4.918-2.047c0 .12-.007.248-.021.382h-3.04c.023.375.15.669.382.881.236.208.52.312.854.312.273 0 .5-.062.68-.187.185-.13.315-.301.389-.514h.68a1.646 1.646 0 0 1-.611.895c-.305.227-.685.34-1.138.34-.361 0-.685-.081-.972-.243a1.734 1.734 0 0 1-.666-.687c-.162-.301-.243-.648-.243-1.041s.079-.738.236-1.034c.157-.296.377-.523.659-.68.287-.162.615-.243.985-.243.361 0 .68.079.958.236s.49.375.638.652c.153.273.229.583.229.93zm-.653-.132c0-.241-.053-.446-.16-.618a1.002 1.002 0 0 0-.437-.396 1.298 1.298 0 0 0-.604-.139c-.319 0-.592.102-.819.305-.222.204-.349.486-.382.847H19.7zm2.257-1.103v2.242c0 .185.039.317.118.396.079.074.215.111.409.111h.465v.534h-.569c-.352 0-.615-.081-.791-.243s-.264-.428-.264-.798v-2.242h-.493v-.52h.493v-.958h.632v.958h.992v.52h-.992z"/></symbol><symbol id="icon-dress" viewBox="0 0 20 32"><path d="M5.205 12.949c.024.858.267 1.695.706 2.433a.774.774 0 0 0 .689.426h3.316a.772.772 0 0 0 .749-.584l.324-1.295.324 1.295a.772.772 0 0 0 .749.584h1.002a.764.764 0 0 0 .69-.427 5.014 5.014 0 0 0 .705-2.431c0-2.269-1.542-2.978-1.542-3.848 0-1.08 1.542-1.264 1.542-2.781 0-1.642-1.542-1.475-1.542-2.495v-.355a.769.769 0 0 0-.771-.771h-.771a.769.769 0 0 0-.771.771v.463a.915.915 0 0 1-.407.76c-.137.091-.26.202-.365.328a1.676 1.676 0 0 0-.365-.328.909.909 0 0 1-.407-.76v-.463a.769.769 0 0 0-.771-.771h-.771a.775.775 0 0 0-.771.771v.355a.901.901 0 0 1-.503.815c-.313.155-.577.395-.76.693s-.28.64-.279.99c0 1.499 1.542 1.716 1.542 2.794 0 .824-1.542 1.582-1.542 3.832zm.771-6.632c0-1.214 1.542-.891 1.542-2.495V3.47h.771v.463a1.685 1.685 0 0 0 .75 1.401.911.911 0 0 1 .406.758c0 .102.041.2.113.273s.17.113.273.113c.102 0 .2-.041.273-.113s.113-.17.113-.273a.915.915 0 0 1 .407-.76 1.676 1.676 0 0 0 .75-1.399V3.47h.771v.355c0 1.619 1.542 1.271 1.542 2.495 0 1.089-1.542 1.263-1.542 2.794 0 1.353 1.542 1.713 1.542 3.835a4.323 4.323 0 0 1-.623 2.087h-1.002l-.699-2.792a.399.399 0 0 0-.601-.187.399.399 0 0 0-.147.187l-.699 2.792H6.6a4.339 4.339 0 0 1-.624-2.087c0-2.1 1.542-2.474 1.542-3.848 0-1.53-1.542-1.679-1.542-2.778v-.005zM2.233 24.464c.527 0 .983.099 1.367.298.389.194.685.474.888.84.208.366.312.796.312 1.291s-.104.925-.312 1.291c-.204.361-.5.638-.888.833-.384.19-.84.285-1.367.285H.727v-4.837h1.506zm0 4.317c.625 0 1.101-.164 1.43-.493.328-.333.493-.798.493-1.395 0-.601-.167-1.071-.5-1.409-.328-.338-.803-.507-1.423-.507h-.874v3.803h.874zm4.032-2.665c.111-.217.268-.386.472-.507.208-.12.46-.18.756-.18v.652h-.167c-.708 0-1.062.384-1.062 1.152v2.068h-.632v-3.803h.632v.618zm5.428 1.138c0 .12-.007.248-.021.382h-3.04c.023.375.15.669.382.881.236.208.52.312.854.312.273 0 .5-.062.68-.187.185-.13.315-.301.389-.514h.68a1.646 1.646 0 0 1-.611.895c-.305.227-.685.34-1.138.34-.361 0-.685-.081-.972-.243a1.734 1.734 0 0 1-.666-.687c-.162-.301-.243-.648-.243-1.041s.079-.738.236-1.034c.157-.296.377-.523.659-.68.287-.162.615-.243.985-.243.361 0 .68.079.958.236s.49.375.638.652c.153.273.229.583.229.93zm-.653-.132c0-.241-.053-.446-.16-.618a1.002 1.002 0 0 0-.437-.396 1.298 1.298 0 0 0-.604-.139c-.319 0-.592.102-.819.305-.222.204-.349.486-.382.847h2.401zm2.832 2.242a2.01 2.01 0 0 1-.784-.146 1.371 1.371 0 0 1-.548-.416 1.126 1.126 0 0 1-.222-.618h.652c.018.19.106.345.264.465.162.12.372.18.632.18.241 0 .43-.053.569-.16s.208-.241.208-.402a.39.39 0 0 0-.222-.368c-.148-.083-.377-.164-.687-.243a5.644 5.644 0 0 1-.694-.222 1.325 1.325 0 0 1-.458-.34c-.125-.153-.187-.352-.187-.597 0-.194.058-.372.174-.534s.28-.289.493-.382c.213-.097.456-.146.729-.146.421 0 .761.106 1.02.319s.398.504.416.874h-.632a.648.648 0 0 0-.243-.479c-.143-.12-.338-.18-.583-.18-.227 0-.407.049-.541.146s-.201.224-.201.382c0 .125.039.229.118.312.083.079.185.143.305.194.125.046.296.099.514.16.273.074.495.148.666.222.171.069.317.176.437.319.125.143.19.331.194.562 0 .208-.058.396-.174.562s-.28.298-.493.396a1.755 1.755 0 0 1-.722.139zm3.626 0a2.01 2.01 0 0 1-.784-.146 1.371 1.371 0 0 1-.548-.416 1.126 1.126 0 0 1-.222-.618h.652c.018.19.106.345.264.465.162.12.372.18.632.18.241 0 .43-.053.569-.16s.208-.241.208-.402a.39.39 0 0 0-.222-.368c-.148-.083-.377-.164-.687-.243a5.644 5.644 0 0 1-.694-.222 1.325 1.325 0 0 1-.458-.34c-.125-.153-.187-.352-.187-.597 0-.194.058-.372.174-.534s.28-.289.493-.382c.213-.097.456-.146.729-.146.421 0 .761.106 1.02.319s.398.504.416.874h-.632a.648.648 0 0 0-.243-.479c-.143-.12-.338-.18-.583-.18-.227 0-.407.049-.541.146s-.201.224-.201.382c0 .125.039.229.118.312.083.079.185.143.305.194.125.046.296.099.514.16.273.074.495.148.666.222.171.069.317.176.437.319.125.143.19.331.194.562 0 .208-.058.396-.174.562s-.28.298-.493.396a1.755 1.755 0 0 1-.722.139z"/></symbol><symbol id="icon-Ellipse-7" viewBox="0 0 32 32"><path d="M32 16c0 8.837-7.163 16-16 16S0 24.837 0 16 7.163 0 16 0s16 7.163 16 16z"/></symbol><symbol id="icon-Email" viewBox="0 0 32 32"><path d="M25.333 5.333H6.666a4.003 4.003 0 0 0-4 4v13.333a4.003 4.003 0 0 0 4 4h18.667a4.003 4.003 0 0 0 4-4V9.333a4.003 4.003 0 0 0-4-4zM24.569 8 16.8 14.4a1.327 1.327 0 0 1-1.554.037L7.43 8h17.139zm.764 16H6.666a1.334 1.334 0 0 1-1.334-1.334V9.733l8.267 6.8a3.964 3.964 0 0 0 2.384.791 4.098 4.098 0 0 0 2.464-.828l8.219-6.763v12.933A1.334 1.334 0 0 1 25.332 24z"/></symbol><symbol id="icon-EmailWhite" viewBox="0 0 31 32"><path d="M24.32 5.489H6.4a3.84 3.84 0 0 0-3.84 3.84v12.8a3.84 3.84 0 0 0 3.84 3.84h17.92a3.84 3.84 0 0 0 3.84-3.84v-12.8a3.84 3.84 0 0 0-3.84-3.84zm-.733 2.56-7.459 6.144a1.27 1.27 0 0 1-1.491.036l-7.503-6.18h16.453zm.733 15.36H6.4a1.28 1.28 0 0 1-1.28-1.28V9.713l7.936 6.528c.66.494 1.464.761 2.289.759a3.928 3.928 0 0 0 2.365-.795l7.89-6.492v12.416a1.28 1.28 0 0 1-1.28 1.28z"/></symbol><symbol id="icon-facebook" viewBox="0 0 31 32"><path d="M26.752 2.929H3.968A1.41 1.41 0 0 0 2.56 4.337v22.784a1.404 1.404 0 0 0 1.408 1.408H16.23v-9.92h-3.328v-3.84h3.328v-2.88a4.657 4.657 0 0 1 4.966-5.12 25.83 25.83 0 0 1 2.982.154v3.456h-2.035c-1.613 0-1.92.768-1.92 1.882v2.47h3.84l-.499 3.84h-3.341v9.958h6.528a1.404 1.404 0 0 0 1.408-1.408V4.337a1.404 1.404 0 0 0-1.408-1.408z"/></symbol><symbol id="icon-instagram" viewBox="0 0 31 32"><path d="M22.195 7.358a1.531 1.531 0 0 0-1.419.948 1.53 1.53 0 0 0 .333 1.673 1.531 1.531 0 0 0 1.673.333 1.544 1.544 0 0 0 .948-1.419 1.537 1.537 0 0 0-1.536-1.536zm5.888 3.097a9.713 9.713 0 0 0-.589-3.11 6.325 6.325 0 0 0-1.485-2.266 6.026 6.026 0 0 0-2.266-1.472 9.347 9.347 0 0 0-3.11-.602c-1.357-.077-1.792-.077-5.274-.077s-3.917 0-5.274.077a9.322 9.322 0 0 0-3.11.602 6.131 6.131 0 0 0-2.266 1.472 6.026 6.026 0 0 0-1.472 2.266 9.347 9.347 0 0 0-.602 3.11c-.077 1.357-.077 1.792-.077 5.274s0 3.917.077 5.274a9.322 9.322 0 0 0 .602 3.11 6.026 6.026 0 0 0 1.472 2.266 6.123 6.123 0 0 0 2.266 1.472c.995.376 2.047.58 3.11.602 1.357.077 1.792.077 5.274.077s3.917 0 5.274-.077a9.347 9.347 0 0 0 3.11-.602 6.026 6.026 0 0 0 2.266-1.472 6.2 6.2 0 0 0 1.485-2.266 9.718 9.718 0 0 0 .589-3.11c0-1.357.077-1.792.077-5.274s0-3.917-.077-5.274zm-2.304 10.394a7.163 7.163 0 0 1-.435 2.381 3.92 3.92 0 0 1-.96 1.472 4.082 4.082 0 0 1-1.472.96 7.163 7.163 0 0 1-2.381.435c-1.28.064-1.754.077-5.12.077s-3.84 0-5.12-.077a7.322 7.322 0 0 1-2.483-.384 4.194 4.194 0 0 1-1.408-.96 3.834 3.834 0 0 1-.947-1.472 7.077 7.077 0 0 1-.512-2.432c0-1.28-.077-1.754-.077-5.12s0-3.84.077-5.12a7.086 7.086 0 0 1 .448-2.432A3.837 3.837 0 0 1 6.4 6.769c.389-.44.87-.79 1.408-1.024a7.31 7.31 0 0 1 2.432-.435c1.28 0 1.754-.077 5.12-.077s3.84 0 5.12.077a7.163 7.163 0 0 1 2.381.435 3.913 3.913 0 0 1 1.523 1.024c.419.393.747.874.96 1.408.285.779.432 1.602.435 2.432.064 1.28.077 1.754.077 5.12s-.013 3.84-.077 5.12zM15.36 9.162c-1.298.003-2.566.39-3.645 1.113s-1.918 1.749-2.413 2.95a6.565 6.565 0 1 0 12.637 2.503c.002-.864-.167-1.72-.498-2.518s-.815-1.523-1.426-2.134-1.338-1.094-2.136-1.422a6.555 6.555 0 0 0-2.519-.493zm0 10.829a4.265 4.265 0 0 1-4.181-5.094c.164-.827.57-1.586 1.167-2.182s1.356-1.002 2.182-1.167a4.264 4.264 0 0 1 3.846 7.195 4.26 4.26 0 0 1-3.014 1.248z"/></symbol><symbol id="icon-more" viewBox="0 0 19 32"><path d="M15.229 10.988c-.957 0-1.735-.778-1.735-1.735s.778-1.735 1.735-1.735c.957 0 1.735.778 1.735 1.735s-.778 1.735-1.735 1.735zm0-2.313a.578.578 0 1 0 0 1.157.578.578 0 0 0 0-1.157zm-5.783 2.313c-.957 0-1.735-.778-1.735-1.735s.778-1.735 1.735-1.735c.957 0 1.735.778 1.735 1.735s-.778 1.735-1.735 1.735zm0-2.313a.578.578 0 1 0 0 1.157.578.578 0 0 0 0-1.157zm-5.783 2.313c-.957 0-1.735-.778-1.735-1.735s.778-1.735 1.735-1.735c.957 0 1.735.778 1.735 1.735s-.778 1.735-1.735 1.735zm0-2.313a.578.578 0 1 0 0 1.157.578.578 0 0 0 0-1.157zM6.212 24.499v4.802H5.58V25.72l-1.596 3.581H3.54l-1.603-3.588v3.588h-.632v-4.802h.68l1.777 3.97 1.777-3.97h.673zm2.729 4.865a1.97 1.97 0 0 1-.972-.243 1.761 1.761 0 0 1-.68-.687 2.163 2.163 0 0 1-.243-1.041c0-.389.083-.731.25-1.027a1.73 1.73 0 0 1 .694-.687c.291-.162.618-.243.978-.243s.687.081.979.243c.291.157.52.384.687.68.171.296.257.641.257 1.034s-.088.74-.264 1.041c-.171.296-.405.525-.701.687s-.625.243-.985.243zm0-.556c.227 0 .44-.053.638-.16s.359-.266.479-.479c.125-.213.187-.472.187-.777s-.06-.564-.18-.777a1.159 1.159 0 0 0-.472-.472 1.299 1.299 0 0 0-.632-.16 1.3 1.3 0 0 0-.638.16c-.19.102-.342.259-.458.472s-.173.472-.173.777c0 .31.056.571.167.784.116.213.268.372.458.479a1.3 1.3 0 0 0 .625.153zm3.412-2.692c.111-.217.268-.386.472-.507.208-.12.46-.18.756-.18v.652h-.167c-.708 0-1.062.384-1.062 1.152v2.068h-.632v-3.803h.632v.618zm5.428 1.138c0 .12-.007.248-.021.382h-3.04c.023.375.15.669.382.881.236.208.52.312.854.312.273 0 .5-.062.68-.187.185-.13.315-.301.389-.514h.68a1.646 1.646 0 0 1-.611.895c-.305.227-.685.34-1.138.34-.361 0-.685-.081-.972-.243a1.734 1.734 0 0 1-.666-.687c-.162-.301-.243-.648-.243-1.041s.079-.738.236-1.034c.157-.296.377-.523.659-.68.287-.162.615-.243.985-.243.361 0 .68.079.958.236s.49.375.638.652c.153.273.229.583.229.93zm-.653-.132c0-.241-.053-.446-.16-.618a1.002 1.002 0 0 0-.437-.396 1.298 1.298 0 0 0-.604-.139c-.319 0-.592.102-.819.305-.222.204-.349.486-.382.847h2.401z"/></symbol><symbol id="icon-pants" viewBox="0 0 20 32"><path d="M12.723 2.699H7.279a.769.769 0 0 0-.771.724l-.723 11.566a.76.76 0 0 0 .208.577.777.777 0 0 0 .563.243h1.577a.769.769 0 0 0 .76-.645l1.108-6.649 1.108 6.649a.77.77 0 0 0 .76.644h1.577a.774.774 0 0 0 .727-.51.763.763 0 0 0 .044-.31l-.723-11.566a.774.774 0 0 0-.771-.724zm0 .771.085 1.358a1.484 1.484 0 0 1-.879-1.357h.794zm-4.65 0a1.48 1.48 0 0 1-.879 1.358l.085-1.358h.794zm3.796 11.566-1.488-8.931a.387.387 0 0 0-.629-.23.382.382 0 0 0-.131.23l-1.488 8.931H6.556l.583-9.319a2.484 2.484 0 0 0 1.705-2.248h.771v1.157c0 .102.041.2.113.273s.17.113.273.113a.388.388 0 0 0 .386-.386V3.469h.771a2.49 2.49 0 0 0 1.705 2.248l.583 9.319h-1.577zM3.961 25.88c0 .402-.139.738-.416 1.006-.273.264-.692.396-1.256.396h-.93v2.019H.727v-4.837h1.561c.546 0 .96.132 1.242.396.287.264.43.604.43 1.02zm-1.672.881c.352 0 .611-.076.777-.229s.25-.37.25-.652c0-.597-.342-.895-1.027-.895h-.93v1.777h.93zm2.221.625c0-.389.079-.729.236-1.02a1.712 1.712 0 0 1 1.568-.93c.333 0 .622.072.867.215s.428.324.548.541v-.694h.638v3.803h-.638v-.708a1.505 1.505 0 0 1-.562.555 1.677 1.677 0 0 1-.861.215 1.72 1.72 0 0 1-1.561-.951 2.187 2.187 0 0 1-.236-1.027zm3.22.007c0-.287-.058-.537-.173-.75s-.273-.375-.472-.486c-.194-.116-.409-.174-.645-.174s-.451.056-.645.167c-.194.111-.349.273-.465.486s-.173.463-.173.75c0 .291.058.546.173.763.116.213.271.377.465.493.194.111.409.167.645.167s.451-.056.645-.167c.199-.116.356-.28.472-.493.116-.217.173-.47.173-.756zm3.559-1.964c.463 0 .837.141 1.124.423.287.278.43.68.43 1.208v2.242h-.625v-2.151c0-.379-.095-.669-.285-.867-.19-.204-.449-.305-.777-.305-.333 0-.599.104-.798.312-.194.208-.291.511-.291.909v2.103h-.632V25.5h.632v.541c.125-.194.294-.345.507-.451a1.61 1.61 0 0 1 .715-.16zm3.356.59v2.242c0 .185.039.317.118.396.079.074.215.111.409.111h.465v.534h-.569c-.352 0-.615-.081-.791-.243s-.264-.428-.264-.798v-2.242h-.493v-.52h.493v-.958h.632v.958h.992v.52h-.992zm3.104 3.345a2.01 2.01 0 0 1-.784-.146 1.371 1.371 0 0 1-.548-.416 1.126 1.126 0 0 1-.222-.618h.652c.018.19.106.345.264.465.162.12.372.18.632.18.241 0 .43-.053.569-.16s.208-.241.208-.402a.39.39 0 0 0-.222-.368c-.148-.083-.377-.164-.687-.243a5.644 5.644 0 0 1-.694-.222 1.325 1.325 0 0 1-.458-.34c-.125-.153-.187-.352-.187-.597 0-.194.058-.372.174-.534s.28-.289.493-.382c.213-.097.456-.146.729-.146.421 0 .761.106 1.02.319s.398.504.416.874h-.632a.648.648 0 0 0-.243-.479c-.143-.12-.338-.18-.583-.18-.227 0-.407.049-.541.146s-.201.224-.201.382c0 .125.039.229.118.312.083.079.185.143.305.194.125.046.296.099.514.16.273.074.495.148.666.222.171.069.317.176.437.319.125.143.19.331.194.562 0 .208-.058.396-.174.562s-.28.298-.493.396a1.755 1.755 0 0 1-.722.139z"/></symbol><symbol id="icon-Search" viewBox="0 0 32 32"><path d="M27.613 25.72 23.08 21.2a10.555 10.555 0 0 0 2.253-6.533 10.666 10.666 0 1 0-10.667 10.667c2.369.003 4.67-.791 6.533-2.253l4.52 4.533a1.334 1.334 0 0 0 1.894 0 1.331 1.331 0 0 0 0-1.894zM6.667 14.667a8.003 8.003 0 0 1 4.938-7.391 8.007 8.007 0 0 1 8.718 1.734c1.119 1.119 1.881 2.544 2.189 4.096s.15 3.16-.455 4.622-1.631 2.711-2.947 3.59a8 8 0 0 1-12.445-6.652z"/></symbol><symbol id="icon-shirts" viewBox="0 0 19 32"><path d="M6.78 15.036h5.398a.769.769 0 0 0 .771-.771V7.87l.611.611a.79.79 0 0 0 1.09 0l.997-.997a.77.77 0 0 0 0-1.09l-2.586-2.586a1.144 1.144 0 0 0-.818-.338h-5.53a1.162 1.162 0 0 0-.818.338L3.309 6.394a.77.77 0 0 0 0 1.09l.997.997a.79.79 0 0 0 1.09 0l.611-.611v6.395a.769.769 0 0 0 .771.771zm3.784-10.795a1.151 1.151 0 0 1-2.172 0h2.171zM4.852 7.937l-.997-.997 2.586-2.586a.385.385 0 0 1 .272-.113h.877a1.925 1.925 0 0 0 1.889 1.544 1.929 1.929 0 0 0 1.889-1.544h.877c.102 0 .2.041.272.113l2.585 2.586-.997.997-1.269-1.27a.388.388 0 0 0-.594.058.388.388 0 0 0-.065.215v7.325H6.779V6.94a.385.385 0 0 0-.659-.273l-1.269 1.27zM3.803 29.35c-.319 0-.606-.056-.861-.167a1.476 1.476 0 0 1-.59-.472 1.232 1.232 0 0 1-.222-.701h.673a.905.905 0 0 0 .278.576c.167.153.407.229.722.229.301 0 .537-.074.708-.222a.738.738 0 0 0 .264-.583c0-.185-.051-.335-.153-.451s-.229-.204-.382-.264a5.956 5.956 0 0 0-.618-.194 5.598 5.598 0 0 1-.77-.25 1.276 1.276 0 0 1-.493-.389c-.134-.18-.201-.421-.201-.722a1.246 1.246 0 0 1 .763-1.173c.245-.111.525-.167.84-.167.453 0 .824.113 1.11.34.291.227.456.527.493.902H4.67a.737.737 0 0 0-.291-.486c-.171-.143-.398-.215-.68-.215-.264 0-.479.069-.645.208-.167.134-.25.324-.25.569a.63.63 0 0 0 .146.43c.102.111.224.197.368.257.148.056.354.12.618.194.319.088.576.176.77.264.194.083.361.215.5.396.139.176.208.416.208.722 0 .236-.062.458-.187.666s-.31.377-.555.507c-.245.13-.534.194-.867.194zm4.427-3.921c.287 0 .546.062.777.187.231.12.412.303.541.548.134.245.201.544.201.895v2.242h-.625V27.15c0-.379-.095-.669-.285-.867-.19-.204-.449-.305-.777-.305-.333 0-.599.104-.798.312-.194.208-.291.511-.291.909v2.103h-.632v-5.135h.632v1.874c.125-.194.296-.345.514-.451.222-.106.47-.16.743-.16zm2.877-.548c-.12 0-.222-.042-.305-.125s-.125-.185-.125-.305.042-.222.125-.305.185-.125.305-.125c.116 0 .213.042.291.125.083.083.125.185.125.305s-.042.222-.125.305a.387.387 0 0 1-.291.125zm.306.617v3.803h-.632v-3.803h.632zm1.708.618c.111-.217.268-.386.472-.507.208-.12.46-.18.756-.18v.652h-.167c-.708 0-1.062.384-1.062 1.152v2.068h-.632v-3.803h.632v.618zm2.727-.097v2.242c0 .185.039.317.118.396.079.074.215.111.409.111h.465v.534h-.569c-.352 0-.615-.081-.791-.243s-.264-.428-.264-.798v-2.242h-.493v-.52h.493v-.958h.632v.958h.992v.52h-.992z"/></symbol><symbol id="icon-shoes" viewBox="0 0 22 32"><path  d="M16.579 5.421h-4.003a.773.773 0 0 0-.673.401 1.535 1.535 0 0 0-.847-1.05 1.549 1.549 0 0 0-1.349.018 1.55 1.55 0 0 0-.819 1.072 1.54 1.54 0 0 0 .338 1.306c-.093.019-.628.143-.837.191a.388.388 0 0 0-.272.465.383.383 0 0 0 .459.283 9.338 9.338 0 0 1 2.059-.349 3.184 3.184 0 0 1-2.057.746 4.464 4.464 0 0 0-4.325 3.377c-.021.084-.007.422-.012.864a1.163 1.163 0 0 0 .339.818 1.16 1.16 0 0 0 .818.339h6.621c.306-.001.6-.123.817-.338l.273-.273.273.273c.217.216.511.338.817.338h1.994a1.157 1.157 0 0 0 1.157-1.157V6.191a.775.775 0 0 0-.771-.771zM10.41 6.963a.767.767 0 0 1-.712-.476.773.773 0 0 1 .562-1.052.773.773 0 0 1 .922.756v.771h-.771zM8.577 9.277a4.03 4.03 0 0 0 1.139-.167 5.3 5.3 0 0 0 .421.44.388.388 0 0 0 .546 0 .388.388 0 0 0 0-.546l-.213-.213c.096-.052.193-.106.285-.167l.54.54a.388.388 0 0 0 .546 0 .388.388 0 0 0 0-.546l-.483-.483c.077-.077.154-.154.221-.231l.488.489a.393.393 0 0 0 .273.113.377.377 0 0 0 .273-.113.393.393 0 0 0 .113-.273.377.377 0 0 0-.113-.273l-.586-.585c.252-.445.291-.561.551-1.069h4.002v5.398H5.157a3.685 3.685 0 0 1 3.422-2.314zm7.616 3.855h-1.994c-.244 0-.331-.2-.545-.386a.79.79 0 0 0-1.09 0c-.215.187-.302.386-.545.386H5.398c-.102 0-.2-.041-.273-.113s-.113-.17-.113-.273v-.386h11.566v.386c0 .102-.041.2-.113.273s-.17.113-.273.113zM2.261 29.35c-.319 0-.606-.056-.861-.167a1.476 1.476 0 0 1-.59-.472 1.232 1.232 0 0 1-.222-.701h.673a.905.905 0 0 0 .278.576c.167.153.407.229.722.229.301 0 .537-.074.708-.222a.738.738 0 0 0 .264-.583c0-.185-.051-.335-.153-.451s-.229-.204-.382-.264a5.956 5.956 0 0 0-.618-.194 5.598 5.598 0 0 1-.77-.25 1.276 1.276 0 0 1-.493-.389c-.134-.18-.201-.421-.201-.722a1.246 1.246 0 0 1 .763-1.173c.245-.111.525-.167.84-.167.453 0 .824.113 1.11.34.291.227.456.527.493.902h-.694a.737.737 0 0 0-.291-.486c-.171-.143-.398-.215-.68-.215-.264 0-.479.069-.645.208-.167.134-.25.324-.25.569a.63.63 0 0 0 .146.43c.102.111.224.197.368.257.148.056.354.12.618.194.319.088.576.176.77.264.194.083.361.215.5.396.139.176.208.416.208.722 0 .236-.062.458-.187.666s-.31.377-.555.507c-.245.13-.534.194-.867.194zm4.427-3.921c.287 0 .546.062.777.187.231.12.412.303.541.548.134.245.201.544.201.895v2.242h-.625V27.15c0-.379-.095-.669-.285-.867-.19-.204-.449-.305-.777-.305-.333 0-.599.104-.798.312-.194.208-.291.511-.291.909v2.103h-.632v-5.135h.632v1.874c.125-.194.296-.345.514-.451.222-.106.47-.16.743-.16zm4.21 3.935a1.97 1.97 0 0 1-.972-.243 1.761 1.761 0 0 1-.68-.687 2.163 2.163 0 0 1-.243-1.041c0-.389.083-.731.25-1.027a1.73 1.73 0 0 1 .694-.687c.291-.162.618-.243.979-.243s.687.081.979.243c.291.157.52.384.687.68.171.296.257.641.257 1.034s-.088.74-.264 1.041c-.171.296-.405.525-.701.687s-.625.243-.985.243zm0-.556c.227 0 .44-.053.638-.16s.359-.266.479-.479c.125-.213.187-.472.187-.777s-.06-.564-.18-.777a1.159 1.159 0 0 0-.472-.472 1.299 1.299 0 0 0-.632-.16 1.3 1.3 0 0 0-.638.16c-.19.102-.342.259-.458.472s-.174.472-.174.777c0 .31.056.571.167.784.116.213.268.372.458.479a1.3 1.3 0 0 0 .625.153zm6.25-1.554c0 .12-.007.248-.021.382h-3.04c.023.375.15.669.382.881.236.208.52.312.854.312.273 0 .5-.062.68-.187.185-.13.315-.301.389-.514h.68a1.646 1.646 0 0 1-.611.895c-.305.227-.685.34-1.138.34-.361 0-.685-.081-.972-.243a1.734 1.734 0 0 1-.666-.687c-.162-.301-.243-.648-.243-1.041s.079-.738.236-1.034c.157-.296.377-.523.659-.68.287-.162.615-.243.985-.243.361 0 .68.079.958.236s.49.375.638.652c.153.273.229.583.229.93zm-.652-.132c0-.241-.053-.446-.16-.618a1.002 1.002 0 0 0-.437-.396 1.298 1.298 0 0 0-.604-.139c-.319 0-.592.102-.819.305-.222.204-.349.486-.382.847h2.401zm2.832 2.242a2.01 2.01 0 0 1-.784-.146 1.371 1.371 0 0 1-.548-.416 1.126 1.126 0 0 1-.222-.618h.652c.018.19.106.345.264.465.162.12.372.18.632.18.241 0 .43-.053.569-.16s.208-.241.208-.402a.39.39 0 0 0-.222-.368c-.148-.083-.377-.164-.687-.243a5.644 5.644 0 0 1-.694-.222 1.325 1.325 0 0 1-.458-.34c-.125-.153-.187-.352-.187-.597 0-.194.058-.372.174-.534s.28-.289.493-.382c.213-.097.456-.146.729-.146.421 0 .761.106 1.02.319s.398.504.416.874h-.632a.648.648 0 0 0-.243-.479c-.143-.12-.338-.18-.583-.18-.227 0-.407.049-.541.146s-.201.224-.201.382c0 .125.039.229.118.312.083.079.185.143.305.194.125.046.296.099.514.16.273.074.495.148.666.222.171.069.317.176.437.319.125.143.19.331.194.562 0 .208-.058.396-.174.562s-.28.298-.493.396a1.755 1.755 0 0 1-.722.139z"/></symbol><symbol id="icon-skirt" viewBox="0 0 19 32"><path d="M14.072 4.95V3.856a.769.769 0 0 0-.771-.771h-6.94a.775.775 0 0 0-.771.771V4.95c-.611 2.048-1.197 2.97-1.166 4.689.033 1.794.677 2.643 1.868 6.055a.774.774 0 0 0 .723.5h3.261a.769.769 0 0 0 .76-.645l.338-2.023.364 2.184a.582.582 0 0 0 .571.483h.474a.574.574 0 0 0 .539-.374c1.214-3.47 1.882-4.372 1.915-6.179.032-1.723-.559-2.66-1.165-4.69zm-.771-1.095v.771h-6.94v-.771h6.94zm-.653 11.567h-.177l-.717-4.304a.387.387 0 0 0-.629-.23.382.382 0 0 0-.131.23l-.718 4.304H7.014c-1.22-3.47-1.785-4.192-1.818-5.783-.032-1.527.485-2.325 1.059-4.241h7.154c.571 1.905 1.087 2.71 1.059 4.227-.029 1.603-.603 2.336-1.819 5.797zM4.189 29.35c-.319 0-.606-.056-.861-.167a1.476 1.476 0 0 1-.59-.472 1.232 1.232 0 0 1-.222-.701h.673a.905.905 0 0 0 .278.576c.167.153.407.229.722.229.301 0 .537-.074.708-.222a.738.738 0 0 0 .264-.583c0-.185-.051-.335-.153-.451s-.229-.204-.382-.264a5.956 5.956 0 0 0-.618-.194 5.598 5.598 0 0 1-.77-.25 1.276 1.276 0 0 1-.493-.389c-.134-.18-.201-.421-.201-.722a1.246 1.246 0 0 1 .763-1.173c.245-.111.525-.167.84-.167.453 0 .824.113 1.11.34.291.227.456.527.493.902h-.694a.737.737 0 0 0-.291-.486c-.171-.143-.398-.215-.68-.215-.264 0-.479.069-.645.208-.167.134-.25.324-.25.569a.63.63 0 0 0 .146.43c.102.111.224.197.368.257.148.056.354.12.618.194.319.088.576.176.77.264.194.083.361.215.5.396.139.176.208.416.208.722 0 .236-.062.458-.187.666s-.31.377-.555.507c-.245.13-.534.194-.867.194zm4.662-.049-1.492-1.679v1.679h-.632v-5.135h.632v3.019l1.464-1.686h.881l-1.79 1.895 1.797 1.908H8.85zm1.775-4.42c-.12 0-.222-.042-.305-.125s-.125-.185-.125-.305.042-.222.125-.305.185-.125.305-.125c.116 0 .213.042.291.125.083.083.125.185.125.305s-.042.222-.125.305a.387.387 0 0 1-.291.125zm.305.617v3.803h-.632v-3.803h.632zm1.708.618c.111-.217.268-.386.472-.507.208-.12.46-.18.756-.18v.652H13.7c-.708 0-1.062.384-1.062 1.152v2.068h-.632v-3.803h.632v.618zm2.727-.097v2.242c0 .185.039.317.118.396.079.074.215.111.409.111h.465v.534h-.569c-.352 0-.615-.081-.791-.243s-.264-.428-.264-.798v-2.242h-.493v-.52h.493v-.958h.632v.958h.992v.52h-.992z"/></symbol><symbol id="icon-Star-6" viewBox="0 0 36 32"><path d="m18.133 0 3.832 11.793h12.4l-10.032 7.288 3.832 11.793-10.032-7.288-10.032 7.288 3.832-11.793-10.032-7.288h12.4L18.133 0z"/></symbol><symbol id="icon-Support" viewBox="0 0 32 32"><path d="M24.706 24.464c.781 0 1.567-.165 2.21-.634.741-.539 1.335-1.313 1.5-2.235.116-.655.08-1.322.08-1.984 0-1.512.009-3.028 0-4.543-.003-.716-.208-1.466-.634-2.048-.536-.735-1.301-1.325-2.213-1.494a4.53 4.53 0 0 0-1.071-.083 3.869 3.869 0 0 0-1.491.386c-.845.395-1.442 1.16-1.776 2.008-.269.683-.217 1.442-.217 2.161v4.76c0 .609.132 1.16.389 1.708.392.845 1.16 1.442 2.008 1.775.383.153.805.217 1.215.22.64.006 1.255-.566 1.224-1.224-.031-.667-.539-1.218-1.224-1.224-.113 0-.223-.009-.337-.024.107.015.217.031.324.043a2.506 2.506 0 0 1-.591-.165c.098.04.196.083.294.122a2.48 2.48 0 0 1-.52-.303l.248.193a2.661 2.661 0 0 1-.45-.45l.193.248a2.505 2.505 0 0 1-.303-.52c.04.098.083.196.122.294a2.414 2.414 0 0 1-.165-.591c.015.107.031.217.043.325-.037-.272-.024-.551-.024-.826v-4.686c0-.318-.018-.643.024-.958-.015.107-.031.217-.043.325.031-.205.086-.401.165-.591-.04.098-.083.196-.122.294a2.48 2.48 0 0 1 .303-.52l-.193.248c.132-.168.282-.318.45-.45l-.248.193c.162-.122.334-.223.52-.303-.098.04-.196.083-.294.122.19-.08.386-.135.591-.165-.107.015-.217.031-.324.043.279-.037.572-.037.851 0-.107-.015-.217-.031-.325-.043.205.031.401.086.591.165-.098-.04-.196-.083-.294-.122.187.08.358.181.52.303l-.248-.193c.168.132.318.282.45.45l-.193-.248c.122.162.223.334.303.52-.04-.098-.083-.196-.122-.294.08.19.135.386.165.591-.015-.107-.031-.217-.043-.325.037.272.024.551.024.827v4.686c0 .318.018.643-.024.958.015-.107.031-.217.043-.325a2.506 2.506 0 0 1-.165.591c.04-.098.083-.196.122-.294a2.48 2.48 0 0 1-.303.52l.193-.248a2.661 2.661 0 0 1-.45.45l.248-.193a2.505 2.505 0 0 1-.52.303c.098-.04.196-.083.294-.122-.19.08-.386.135-.591.165.107-.015.217-.031.325-.043a4.211 4.211 0 0 1-.514.024c-.64 0-1.255.563-1.224 1.224.031.664.539 1.224 1.224 1.224zm-17.59 0c.781 0 1.567-.165 2.21-.634.741-.539 1.335-1.313 1.5-2.235.116-.655.08-1.322.08-1.984 0-1.512.009-3.028 0-4.543-.003-.716-.208-1.466-.634-2.048-.536-.735-1.301-1.325-2.213-1.494a4.53 4.53 0 0 0-1.071-.083 3.869 3.869 0 0 0-1.491.386c-.845.395-1.442 1.16-1.776 2.008-.269.683-.217 1.442-.217 2.161v4.76c0 .609.132 1.16.389 1.708.392.845 1.16 1.442 2.008 1.775.383.153.805.217 1.215.22.64.006 1.255-.566 1.224-1.224-.031-.667-.539-1.218-1.224-1.224-.113 0-.223-.009-.337-.024.107.015.217.031.325.043a2.506 2.506 0 0 1-.591-.165c.098.04.196.083.294.122a2.48 2.48 0 0 1-.52-.303l.248.193a2.661 2.661 0 0 1-.45-.45l.193.248a2.505 2.505 0 0 1-.303-.52c.04.098.083.196.122.294a2.414 2.414 0 0 1-.165-.591c.015.107.031.217.043.325-.037-.272-.024-.551-.024-.826v-4.686c0-.318-.018-.643.024-.958-.015.107-.031.217-.043.325.031-.205.086-.401.165-.591-.04.098-.083.196-.122.294a2.48 2.48 0 0 1 .303-.52l-.193.248c.132-.168.282-.318.45-.45l-.248.193c.162-.122.334-.223.52-.303-.098.04-.196.083-.294.122.19-.08.386-.135.591-.165-.107.015-.217.031-.325.043.279-.037.572-.037.851 0-.107-.015-.217-.031-.324-.043.205.031.401.086.591.165-.098-.04-.196-.083-.294-.122.187.08.358.181.52.303l-.248-.193c.168.132.318.282.45.45l-.193-.248c.122.162.223.334.303.52-.04-.098-.083-.196-.122-.294.08.19.135.386.165.591-.015-.107-.031-.217-.043-.325.037.272.024.551.024.827v4.686c0 .318.018.643-.024.958.015-.107.031-.217.043-.325a2.506 2.506 0 0 1-.165.591c.04-.098.083-.196.122-.294a2.48 2.48 0 0 1-.303.52l.193-.248a2.661 2.661 0 0 1-.45.45l.248-.193a2.505 2.505 0 0 1-.52.303c.098-.04.196-.083.294-.122-.19.08-.386.135-.591.165.107-.015.217-.031.325-.043a4.211 4.211 0 0 1-.514.024c-.64 0-1.255.563-1.224 1.224.028.664.539 1.224 1.224 1.224z"/><path d="M5.953 20.763v-6.75c0-.631.015-1.258.098-1.883-.015.107-.031.217-.043.325.135-.986.398-1.95.784-2.868-.04.098-.083.196-.122.294.383-.897.875-1.742 1.472-2.513l-.193.248a11.608 11.608 0 0 1 2.048-2.048l-.248.193a11.51 11.51 0 0 1 2.513-1.472c-.098.04-.196.083-.294.122a11.392 11.392 0 0 1 2.868-.784c-.107.015-.217.031-.325.043.989-.129 1.99-.129 2.979 0-.107-.015-.217-.031-.325-.043.986.135 1.95.398 2.868.784-.098-.04-.196-.083-.294-.122.897.383 1.742.875 2.513 1.472l-.248-.193a11.608 11.608 0 0 1 2.048 2.048l-.193-.248a11.51 11.51 0 0 1 1.472 2.513c-.04-.098-.083-.196-.122-.294.386.918.649 1.883.784 2.868-.015-.107-.031-.217-.043-.325.086.649.098 1.298.098 1.95V21.479c0 .566.024 1.142-.049 1.705.015-.107.031-.217.043-.325a5.432 5.432 0 0 1-.367 1.35c.04-.098.083-.196.122-.294a5.459 5.459 0 0 1-.713 1.218l.193-.248a5.531 5.531 0 0 1-.964.964l.248-.193a5.65 5.65 0 0 1-1.218.713c.098-.04.196-.083.294-.122a5.425 5.425 0 0 1-1.35.367c.107-.015.217-.031.325-.043-.474.061-.952.049-1.43.049h-2.229c-.64 0-1.255.563-1.224 1.224.031.664.539 1.224 1.224 1.224h2.256c.285 0 .569.006.854-.003.885-.027 1.708-.236 2.516-.582a6.512 6.512 0 0 0 3.199-3.037c.392-.796.615-1.61.698-2.495.021-.227.021-.453.021-.683V17.52c0-1.301.003-2.602 0-3.903a12.294 12.294 0 0 0-.729-4.191 12.995 12.995 0 0 0-2.259-3.894c-1.828-2.18-4.479-3.729-7.28-4.209a12.923 12.923 0 0 0-4.665.037 12.216 12.216 0 0 0-4.022 1.564 12.742 12.742 0 0 0-5.379 6.695 12.383 12.383 0 0 0-.661 4.007V20.758c0 .64.563 1.255 1.224 1.224s1.224-.539 1.224-1.224z"/><path d="M17.73 27.844c0 .086-.006.171-.018.254.015-.107.031-.217.043-.324-.024.15-.064.297-.119.438.04-.098.083-.196.122-.294-.064.15-.147.288-.245.419l.193-.248c-.092.116-.196.22-.312.312l.248-.193a1.973 1.973 0 0 1-.419.245c.098-.04.196-.083.294-.122a1.811 1.811 0 0 1-.438.119c.107-.015.217-.031.325-.043-.401.052-.82.018-1.224.018-.41 0-.836.034-1.243-.015.107.015.217.031.325.043a1.942 1.942 0 0 1-.459-.126c.098.04.196.083.294.122a1.992 1.992 0 0 1-.401-.236l.248.193a2.077 2.077 0 0 1-.328-.328l.193.248a2.07 2.07 0 0 1-.236-.401c.04.098.083.196.122.294a2 2 0 0 1-.126-.459c.015.107.031.217.043.325a1.984 1.984 0 0 1 0-.499c-.015.107-.031.217-.043.325.024-.15.064-.297.119-.438-.04.098-.083.196-.122.294.064-.15.147-.288.245-.419l-.193.248c.092-.116.196-.22.312-.312l-.248.193c.129-.098.269-.181.419-.245-.098.04-.196.083-.294.122.141-.058.288-.098.438-.119-.107.015-.217.031-.325.043.401-.052.82-.018 1.224-.018.41 0 .836-.034 1.243.015-.107-.015-.217-.031-.324-.043.159.024.309.064.459.126-.098-.04-.196-.083-.294-.122.144.064.276.141.401.236l-.248-.193c.122.098.23.205.328.328l-.193-.248c.095.126.171.257.236.401-.04-.098-.083-.196-.122-.294a2 2 0 0 1 .126.459c-.015-.107-.031-.217-.043-.325.012.083.015.162.018.245.003.315.135.64.358.866.211.211.56.373.866.358.655-.031 1.234-.539 1.224-1.224-.006-.557-.156-1.139-.465-1.61-.291-.441-.686-.842-1.163-1.078a3.244 3.244 0 0 0-1.417-.349h-1.959a3.164 3.164 0 0 0-1.46.377c-.441.233-.784.591-1.071.992-.297.416-.422.909-.487 1.411-.067.557.073 1.117.312 1.619.23.49.618.875 1.059 1.182.557.386 1.225.49 1.886.49h1.726a3.167 3.167 0 0 0 1.463-.377c.97-.514 1.564-1.576 1.576-2.66.006-.64-.569-1.255-1.224-1.224-.67.034-1.218.542-1.224 1.228z"/></symbol><symbol id="icon-Truck" viewBox="0 0 32 32"><path d="M18.143 8.341v12.128c0 .557-.012 1.117 0 1.675v.024l1.224-1.224h-9.148l1.225 1.224c-.006-.719-.211-1.479-.634-2.066a4.177 4.177 0 0 0-.924-.943 3.65 3.65 0 0 0-.961-.496c-1.356-.502-3.043-.04-3.97 1.065-.582.695-.915 1.527-.925 2.443l1.224-1.224H4.127c-.383 0-.781.034-1.163-.009.107.015.217.031.325.043a1.27 1.27 0 0 1-.239-.061c.098.04.196.083.294.122a1.106 1.106 0 0 1-.245-.141l.248.193a1.112 1.112 0 0 1-.168-.168l.193.248a1.106 1.106 0 0 1-.141-.245c.04.098.083.196.122.294a1.063 1.063 0 0 1-.061-.239c.015.107.031.217.043.325-.015-.147-.009-.297-.009-.444V9.894c0-.511-.006-1.022 0-1.531 0-.049.003-.095.009-.144-.015.107-.031.217-.043.324a1.27 1.27 0 0 1 .061-.239c-.04.098-.083.196-.122.294.037-.089.083-.168.141-.245l-.193.248c.052-.064.107-.119.168-.168l-.248.193c.077-.058.156-.104.245-.141-.098.04-.196.083-.294.122.08-.031.156-.049.239-.061-.107.015-.217.031-.325.043.168-.018.343-.009.514-.009h13.05c.609 0 1.218-.009 1.828 0 .049 0 .098.003.147.009-.107-.015-.217-.031-.325-.043.083.012.162.034.239.061-.098-.04-.196-.083-.294-.122.089.037.168.083.245.141l-.248-.193c.064.052.119.107.168.168l-.193-.248c.058.077.104.156.141.245-.04-.098-.083-.196-.122-.294.031.08.049.156.061.239-.015-.107-.031-.217-.043-.324.006.037.009.08.009.122.006.318.132.64.358.866.211.211.56.373.866.358.652-.031 1.24-.539 1.224-1.225a2.323 2.323 0 0 0-.594-1.509 2.09 2.09 0 0 0-1.169-.655 3.284 3.284 0 0 0-.551-.052H4.906c-.603 0-1.209-.012-1.812 0A2.257 2.257 0 0 0 .963 7.725c-.07.226-.086.468-.086.707v12.741c.006.386.101.719.269 1.065.19.386.569.747.961.918.337.15.652.236 1.026.239h2.122c.667 0 1.218-.56 1.224-1.224 0-.113.009-.227.024-.34-.015.107-.031.217-.043.324a2.68 2.68 0 0 1 .174-.634c-.04.098-.083.196-.122.294.086-.199.196-.383.328-.554l-.193.248c.126-.159.266-.3.425-.426l-.248.193c.171-.132.355-.242.554-.328-.098.04-.196.083-.294.122.205-.086.416-.144.634-.174-.107.015-.217.031-.325.043.227-.031.453-.031.68 0-.107-.015-.217-.031-.325-.043.22.031.432.092.634.174-.098-.04-.196-.083-.294-.122.199.086.383.196.554.328l-.248-.193c.159.126.3.266.426.426l-.193-.248c.132.171.242.355.328.554-.04-.098-.083-.196-.122-.294.086.205.144.416.174.634-.015-.107-.031-.217-.043-.324.015.113.021.226.024.34.006.661.557 1.224 1.224 1.224h9.148c.661 0 1.224-.56 1.224-1.224V10.042c0-.557.009-1.117 0-1.675v-.024c0-.64-.563-1.255-1.224-1.224-.661.028-1.221.536-1.221 1.221z"/><path d="M28.67 17.16v3.569c0 .19.012.386-.009.579.015-.107.031-.217.043-.324a1.27 1.27 0 0 1-.061.239c.04-.098.083-.196.122-.294a1.106 1.106 0 0 1-.141.245l.193-.248a1.112 1.112 0 0 1-.168.168l.248-.193a1.106 1.106 0 0 1-.245.141c.098-.04.196-.083.294-.122-.08.031-.156.049-.239.061.107-.015.217-.031.325-.043-.315.034-.643.009-.961.009h-.924l1.224 1.224c-.006-.719-.211-1.479-.634-2.066a4.16 4.16 0 0 0-.925-.943 3.65 3.65 0 0 0-.961-.496c-1.359-.502-3.043-.04-3.97 1.065-.582.695-.915 1.527-.924 2.443l1.224-1.224H19.365l1.224 1.224V12.65c0-.441.009-.882 0-1.322v-.018l-1.224 1.225h4.803c.26 0 .533-.018.79.012-.107-.015-.217-.031-.325-.043.11.018.211.046.315.086-.098-.04-.196-.083-.294-.122.116.049.223.11.321.187l-.248-.193c.202.162.361.386.526.582.297.355.594.71.894 1.065.695.83 1.39 1.662 2.088 2.492.168.202.34.401.505.603l-.193-.248c.07.095.125.19.174.297-.04-.098-.083-.196-.122-.294.043.107.073.214.092.331-.015-.107-.031-.217-.043-.324a.853.853 0 0 1 .021.196c.006.318.132.64.358.866.211.211.56.373.866.358.652-.031 1.237-.539 1.224-1.224a2.768 2.768 0 0 0-.318-1.237c-.095-.184-.233-.346-.364-.505l-.162-.193-.802-.958-2.17-2.593c-.199-.239-.398-.478-.597-.713-.487-.579-1.231-.879-1.978-.879-.885-.003-1.772 0-2.657 0s-1.772-.009-2.657 0h-.046c-.661 0-1.224.56-1.224 1.225v9.524c0 .441-.006.882 0 1.322v.018c0 .661.56 1.224 1.224 1.224H22.182c.667 0 1.218-.56 1.224-1.224 0-.113.009-.227.024-.34-.015.107-.031.217-.043.325a2.68 2.68 0 0 1 .174-.634c-.04.098-.083.196-.122.294.086-.199.196-.383.328-.554l-.193.248c.125-.159.266-.3.425-.426l-.248.193c.171-.132.355-.242.554-.328-.098.04-.196.083-.294.122.205-.086.416-.144.634-.174-.107.015-.217.031-.325.043.227-.031.453-.031.68 0-.107-.015-.217-.031-.324-.043.22.031.432.092.634.174-.098-.04-.196-.083-.294-.122.199.086.383.196.554.328l-.248-.193c.159.126.3.266.426.426l-.193-.248c.132.171.242.355.328.554-.04-.098-.083-.196-.122-.294.086.205.144.416.174.634-.015-.107-.031-.217-.043-.325.015.113.021.227.024.34.006.661.557 1.224 1.224 1.224h1.454c.321 0 .649.006.958-.101.373-.126.738-.334.992-.64.129-.156.251-.309.331-.493.135-.303.196-.526.23-.857.034-.343.009-.701.009-1.044v-3.101c0-.64-.563-1.255-1.224-1.224-.658.031-1.221.539-1.221 1.224zM8.993 22.168c0 .113-.009.227-.024.34.015-.107.031-.217.043-.324-.031.22-.092.432-.175.634.04-.098.083-.196.122-.294a2.576 2.576 0 0 1-.328.554l.193-.248c-.126.159-.266.3-.426.426l.248-.193a2.576 2.576 0 0 1-.554.328c.098-.04.196-.083.294-.122a2.519 2.519 0 0 1-.634.174c.107-.015.217-.031.324-.043a2.498 2.498 0 0 1-.68 0c.107.015.217.031.324.043a2.68 2.68 0 0 1-.634-.174c.098.04.196.083.294.122a2.576 2.576 0 0 1-.554-.328l.248.193a2.52 2.52 0 0 1-.425-.426l.193.248a2.576 2.576 0 0 1-.328-.554c.04.098.083.196.122.294a2.519 2.519 0 0 1-.174-.634c.015.107.031.217.043.324a2.498 2.498 0 0 1 0-.68c-.015.107-.031.217-.043.325a2.68 2.68 0 0 1 .174-.634c-.04.098-.083.196-.122.294.086-.199.196-.383.328-.554l-.193.248c.126-.159.266-.3.425-.425l-.248.193c.171-.132.355-.242.554-.328-.098.04-.196.083-.294.122.205-.086.416-.144.634-.174-.107.015-.217.031-.325.043.227-.031.453-.031.68 0-.107-.015-.217-.031-.324-.043.22.031.432.092.634.174-.098-.04-.196-.083-.294-.122.199.086.383.196.554.328l-.248-.193c.159.125.3.266.426.425l-.193-.248c.132.171.242.355.328.554-.04-.098-.083-.196-.122-.294.086.205.144.416.175.634-.015-.107-.031-.217-.043-.325.018.113.024.227.024.34.003.315.135.643.358.866.211.211.56.373.866.358.658-.031 1.231-.539 1.224-1.224-.006-.726-.214-1.494-.646-2.085a4.316 4.316 0 0 0-.912-.928c-.291-.223-.618-.37-.961-.496a3.52 3.52 0 0 0-1.102-.196 3.62 3.62 0 0 0-1.099.138c-.677.193-1.335.594-1.785 1.139a4.16 4.16 0 0 0-.677 1.145c-.138.343-.193.701-.227 1.068-.061.719.144 1.497.514 2.112.361.6.912 1.133 1.552 1.423.447.202.845.312 1.332.364.364.04.729 0 1.087-.07a3.57 3.57 0 0 0 1.993-1.175c.582-.695.915-1.528.924-2.443.006-.64-.566-1.255-1.224-1.224-.661.034-1.212.542-1.218 1.228z"/><path d="M25.921 22.168c0 .113-.009.227-.024.34.015-.107.031-.217.043-.325a2.68 2.68 0 0 1-.174.634c.04-.098.083-.196.122-.294a2.576 2.576 0 0 1-.328.554l.193-.248c-.126.159-.266.3-.426.426l.248-.193a2.576 2.576 0 0 1-.554.328c.098-.04.196-.083.294-.122a2.519 2.519 0 0 1-.634.174c.107-.015.217-.031.325-.043a2.498 2.498 0 0 1-.68 0c.107.015.217.031.325.043a2.68 2.68 0 0 1-.634-.174c.098.04.196.083.294.122a2.576 2.576 0 0 1-.554-.328l.248.193a2.563 2.563 0 0 1-.426-.426l.193.248a2.576 2.576 0 0 1-.328-.554c.04.098.083.196.122.294a2.519 2.519 0 0 1-.174-.634c.015.107.031.217.043.325a2.498 2.498 0 0 1 0-.68c-.015.107-.031.217-.043.325a2.68 2.68 0 0 1 .174-.634c-.04.098-.083.196-.122.294.086-.199.196-.383.328-.554l-.193.248c.126-.159.266-.3.426-.426l-.248.193c.171-.132.355-.242.554-.328-.098.04-.196.083-.294.122.205-.086.416-.144.634-.174-.107.015-.217.031-.325.043.227-.031.453-.031.68 0-.107-.015-.217-.031-.325-.043.22.031.432.092.634.174-.098-.04-.196-.083-.294-.122.199.086.383.196.554.328l-.248-.193c.159.126.3.266.426.426l-.193-.248c.132.171.242.355.328.554-.04-.098-.083-.196-.122-.294.086.205.144.416.174.634-.015-.107-.031-.217-.043-.325.015.113.024.227.024.34.003.315.135.643.358.866.211.211.56.373.866.358.658-.031 1.231-.539 1.224-1.224-.006-.726-.214-1.494-.646-2.085a4.34 4.34 0 0 0-.912-.928c-.291-.223-.618-.37-.961-.496a3.52 3.52 0 0 0-1.102-.196 3.62 3.62 0 0 0-1.099.138c-.677.193-1.335.594-1.785 1.139a4.16 4.16 0 0 0-.677 1.145c-.138.343-.193.701-.227 1.068-.061.719.144 1.497.514 2.112.361.6.912 1.133 1.552 1.423.447.202.845.312 1.332.364.364.04.729 0 1.087-.07a3.57 3.57 0 0 0 1.993-1.175c.582-.695.915-1.527.924-2.443.006-.64-.566-1.255-1.224-1.224-.661.034-1.212.542-1.218 1.228z"/></symbol><symbol id="icon-twitter" viewBox="0 0 31 32"><path d="M10.893 25.969h-.102a13.92 13.92 0 0 1-5.952-1.395 1.762 1.762 0 0 1-.5-2.84c.267-.271.612-.451.987-.515a8.477 8.477 0 0 0 3.251-1.139A12.154 12.154 0 0 1 4.084 8.47a1.806 1.806 0 0 1 1.28-1.472 1.726 1.726 0 0 1 1.83.525 9.08 9.08 0 0 0 6.247 3.52 5.763 5.763 0 0 1 1.805-3.968 5.718 5.718 0 0 1 8.153.244.902.902 0 0 0 .999.128 1.778 1.778 0 0 1 2.45 1.057c.105.321.116.665.033.992a8.535 8.535 0 0 1-1.638 3.328 13.811 13.811 0 0 1-14.349 13.145zm0-2.56h.102a11.266 11.266 0 0 0 8.115-3.067 11.251 11.251 0 0 0 3.521-7.928c.021-.408.189-.795.474-1.088.312-.395.578-.825.794-1.28a3.28 3.28 0 0 1-2.444-1.088 3.126 3.126 0 0 0-2.253-.908 3.214 3.214 0 0 0-3.167 2.309 3.237 3.237 0 0 0-.047 1.672l.333 1.459-1.498.102a10.635 10.635 0 0 1-8.372-3.072 9.112 9.112 0 0 0 4.775 8.269l1.216.691-.806 1.152a7.194 7.194 0 0 1-3.43 2.458c.875.219 1.774.327 2.675.32h.013z"/></symbol><symbol id="icon-underwear" viewBox="0 0 39 32"><path d="M24.675 3.44a.391.391 0 0 0-.416-.356.384.384 0 0 0-.264.134.39.39 0 0 0-.092.282l.453 5.773a5.482 5.482 0 0 0-4.694 3.457 5.483 5.483 0 0 0-4.696-3.456l.454-5.773c.008-.102-.025-.204-.092-.281s-.162-.126-.264-.134c-.102-.008-.204.025-.281.092s-.126.162-.134.264l-.474 6.051a3.987 3.987 0 0 0 2.702 6.689 3.979 3.979 0 0 0 2.784-.934 3.987 3.987 0 0 0 5.45-.297 3.979 3.979 0 0 0 .034-5.458l-.472-6.051zm-9.85 11.036a3.229 3.229 0 0 1-.11-4.452 4.718 4.718 0 0 1 4.562 4.562 3.225 3.225 0 0 1-4.452-.11zm9.675 0a3.23 3.23 0 0 1-4.449.11 4.717 4.717 0 0 1 4.559-4.562 3.225 3.225 0 0 1-.111 4.452zM1.345 24.464v3.06c0 .43.104.75.312.958.213.208.507.312.881.312.37 0 .659-.104.867-.312.213-.208.319-.527.319-.958v-3.06h.632v3.053c0 .402-.081.743-.243 1.02a1.528 1.528 0 0 1-.659.611c-.273.134-.581.201-.923.201s-.652-.067-.93-.201a1.534 1.534 0 0 1-.652-.611c-.157-.278-.236-.618-.236-1.02v-3.053h.632zm5.918.965c.463 0 .837.141 1.124.423.287.278.43.68.43 1.208v2.242h-.625v-2.151c0-.379-.095-.669-.285-.867-.19-.204-.449-.305-.777-.305-.333 0-.599.104-.798.312-.194.208-.291.511-.291.909v2.103h-.632V25.5h.632v.541c.125-.194.294-.345.507-.451a1.61 1.61 0 0 1 .715-.16zm2.35 1.957c0-.389.079-.729.236-1.02.157-.296.372-.525.645-.687.278-.162.588-.243.93-.243.296 0 .571.069.826.208.254.134.449.312.583.534v-2.013h.638V29.3h-.638v-.715c-.125.227-.31.414-.555.562a1.677 1.677 0 0 1-.861.215c-.338 0-.645-.083-.923-.25-.273-.167-.488-.4-.645-.701s-.236-.643-.236-1.027zm3.22.007c0-.287-.058-.537-.174-.75s-.273-.375-.472-.486c-.194-.116-.409-.174-.645-.174s-.451.056-.645.167c-.194.111-.349.273-.465.486s-.174.463-.174.75c0 .291.058.546.174.763.116.213.271.377.465.493.194.111.409.167.645.167s.451-.056.645-.167c.199-.116.356-.28.472-.493.116-.217.174-.47.174-.756zm5.176-.139c0 .12-.007.248-.021.382h-3.04c.023.375.15.669.382.881.236.208.52.312.854.312.273 0 .5-.062.68-.187.185-.13.315-.301.389-.514h.68a1.646 1.646 0 0 1-.611.895c-.305.227-.685.34-1.138.34-.361 0-.685-.081-.972-.243a1.734 1.734 0 0 1-.666-.687c-.162-.301-.243-.648-.243-1.041s.079-.738.236-1.034c.157-.296.377-.523.659-.68.287-.162.615-.243.985-.243.361 0 .68.079.958.236s.49.375.638.652c.153.273.229.583.229.93zm-.653-.132c0-.241-.053-.446-.16-.618a1.002 1.002 0 0 0-.437-.396 1.298 1.298 0 0 0-.604-.139c-.319 0-.592.102-.819.305-.222.204-.349.486-.382.847h2.401zm2.118-1.006c.111-.217.268-.386.472-.507.208-.12.46-.18.756-.18v.652h-.167c-.708 0-1.062.384-1.062 1.152v2.068h-.632v-3.803h.632v.618zm7.023-.618-1.187 3.803h-.652l-.916-3.019-.916 3.019h-.652l-1.194-3.803h.645l.874 3.192.944-3.192h.645l.923 3.199.861-3.199h.625zm4.097 1.756c0 .12-.007.248-.021.382h-3.04c.023.375.15.669.382.881.236.208.52.312.854.312.273 0 .5-.062.68-.187.185-.13.315-.301.389-.514h.68a1.646 1.646 0 0 1-.611.895c-.305.227-.685.34-1.138.34-.361 0-.685-.081-.972-.243a1.734 1.734 0 0 1-.666-.687c-.162-.301-.243-.648-.243-1.041s.079-.738.236-1.034c.157-.296.377-.523.659-.68.287-.162.615-.243.985-.243.361 0 .68.079.958.236s.49.375.638.652c.153.273.229.583.229.93zm-.652-.132c0-.241-.053-.446-.16-.618a1.002 1.002 0 0 0-.437-.396 1.298 1.298 0 0 0-.604-.139c-.319 0-.592.102-.819.305-.222.204-.349.486-.382.847h2.401zm1.249.264c0-.389.079-.729.236-1.02a1.712 1.712 0 0 1 1.568-.93c.333 0 .622.072.867.215s.428.324.548.541v-.694h.638v3.803h-.638v-.708a1.505 1.505 0 0 1-.562.555 1.677 1.677 0 0 1-.861.215 1.72 1.72 0 0 1-1.561-.951 2.187 2.187 0 0 1-.236-1.027zm3.221.007c0-.287-.058-.537-.173-.75s-.273-.375-.472-.486c-.194-.116-.409-.174-.645-.174s-.451.056-.645.167c-.194.111-.349.273-.465.486s-.174.463-.174.75c0 .291.058.546.174.763.116.213.271.377.465.493.194.111.409.167.645.167s.451-.056.645-.167c.199-.116.356-.28.472-.493.116-.217.173-.47.173-.756zm2.337-1.277c.111-.217.268-.386.472-.507.208-.12.46-.18.756-.18v.652h-.167c-.708 0-1.062.384-1.062 1.152v2.068h-.632v-3.803h.632v.618z"/></symbol></defs></svg>