<svg width="49" height="49" fill="none" xmlns="http://www.w3.org/2000/svg"><path d="M37.831 37.461c1.195 0 2.4-.253 3.385-.97 1.134-.825 2.043-2.011 2.296-3.422.179-1.003.122-2.025.122-3.038 0-2.315.014-4.636 0-6.956-.004-1.097-.318-2.245-.97-3.136-.82-1.125-1.992-2.03-3.39-2.287a6.886 6.886 0 0 0-1.64-.127c-.825.042-1.542.244-2.282.59-1.294.606-2.208 1.777-2.72 3.076-.412 1.045-.332 2.208-.332 3.31v7.288c0 .933.202 1.777.595 2.616.6 1.294 1.777 2.208 3.075 2.719.586.234 1.233.332 1.861.337.98.01 1.922-.867 1.875-1.875-.047-1.022-.825-1.865-1.875-1.875-.173 0-.342-.014-.515-.037.164.023.332.047.496.065a3.757 3.757 0 0 1-.904-.253c.15.061.3.127.45.188a3.765 3.765 0 0 1-.797-.464l.38.295a3.994 3.994 0 0 1-.69-.69l.296.38a3.763 3.763 0 0 1-.464-.796c.06.15.126.3.187.45a3.764 3.764 0 0 1-.253-.905c.024.164.047.333.066.497-.056-.417-.038-.844-.038-1.266V24c0-.488-.028-.985.038-1.468-.024.165-.047.333-.066.497.047-.314.131-.614.253-.904-.06.15-.126.3-.187.45.122-.286.276-.549.464-.797l-.295.38a3.99 3.99 0 0 1 .689-.69 549.6 549.6 0 0 0-.38.296c.248-.188.51-.343.797-.464-.15.06-.3.126-.45.187.29-.122.59-.206.904-.253-.164.023-.332.047-.496.066a5.057 5.057 0 0 1 1.303 0 17.972 17.972 0 0 0-.497-.066c.314.047.614.131.904.253-.15-.06-.3-.126-.45-.187.286.122.549.276.797.464l-.38-.296c.258.202.488.432.69.69l-.296-.38c.188.248.343.51.465.797-.061-.15-.127-.3-.188-.45.122.29.206.59.253.904a17.972 17.972 0 0 1-.066-.497c.057.418.038.844.038 1.266v7.177c0 .487.028.984-.038 1.467.024-.164.047-.333.066-.497a3.76 3.76 0 0 1-.253.905c.06-.15.127-.3.188-.45a3.763 3.763 0 0 1-.465.797l.296-.38a3.994 3.994 0 0 1-.69.689l.38-.295a3.768 3.768 0 0 1-.796.464c.15-.061.3-.127.45-.188-.291.122-.591.206-.905.253.164-.023.333-.047.497-.065a6.33 6.33 0 0 1-.788.037c-.98 0-1.922.863-1.875 1.875.047 1.017.825 1.875 1.875 1.875Zm-26.934 0c1.195 0 2.4-.253 3.384-.97 1.135-.825 2.044-2.011 2.297-3.422.178-1.003.122-2.025.122-3.038 0-2.315.014-4.636 0-6.956-.005-1.097-.319-2.245-.97-3.136-.82-1.125-1.993-2.03-3.39-2.287a6.887 6.887 0 0 0-1.64-.127c-.825.042-1.542.244-2.283.59-1.294.606-2.208 1.777-2.719 3.076-.412 1.045-.332 2.208-.332 3.31v7.288c0 .933.201 1.777.595 2.616.6 1.294 1.776 2.208 3.075 2.719.586.234 1.233.332 1.86.337.98.01 1.923-.867 1.876-1.875-.047-1.022-.825-1.865-1.875-1.875-.174 0-.342-.014-.516-.037.164.023.333.047.497.065a3.755 3.755 0 0 1-.905-.253c.15.061.3.127.45.188a3.764 3.764 0 0 1-.796-.464l.38.295a3.996 3.996 0 0 1-.69-.69l.295.38a3.762 3.762 0 0 1-.464-.796c.061.15.127.3.188.45a3.76 3.76 0 0 1-.253-.905c.023.164.047.333.065.497-.056-.417-.037-.844-.037-1.266V24c0-.488-.028-.985.037-1.468a18.01 18.01 0 0 0-.065.497 3.76 3.76 0 0 1 .253-.904c-.061.15-.127.3-.188.45.122-.286.277-.549.464-.797l-.295.38c.202-.258.431-.488.69-.69l-.38.296c.248-.188.51-.343.796-.464-.15.06-.3.126-.45.187.291-.122.591-.206.905-.253-.164.023-.333.047-.497.066a5.057 5.057 0 0 1 1.303 0 17.922 17.922 0 0 0-.497-.066c.315.047.615.131.905.253-.15-.06-.3-.126-.45-.187.286.122.549.276.797.464l-.38-.296c.258.202.488.432.69.69l-.296-.38c.188.248.342.51.464.797-.06-.15-.126-.3-.187-.45.121.29.206.59.253.904a18.363 18.363 0 0 1-.066-.497c.056.418.038.844.038 1.266v7.177c0 .487.028.984-.038 1.467.024-.164.047-.333.066-.497a3.755 3.755 0 0 1-.253.905c.06-.15.126-.3.187-.45a3.763 3.763 0 0 1-.464.797l.295-.38a3.998 3.998 0 0 1-.689.689l.38-.295c-.248.187-.51.342-.797.464.15-.061.3-.127.45-.188-.29.122-.59.206-.905.253.165-.023.333-.047.497-.065a6.33 6.33 0 0 1-.787.037c-.98 0-1.922.863-1.875 1.875.042 1.017.825 1.875 1.875 1.875Z" fill="#393D46"/><path d="M9.116 31.794V21.458c0-.966.023-1.927.15-2.883a18.05 18.05 0 0 0-.066.497c.206-1.51.61-2.986 1.2-4.392-.06.15-.127.3-.187.45a17.507 17.507 0 0 1 2.254-3.849l-.295.38a17.729 17.729 0 0 1 3.136-3.136l-.38.295a17.697 17.697 0 0 1 3.849-2.254c-.15.06-.3.126-.45.187a17.438 17.438 0 0 1 4.392-1.2 18.1 18.1 0 0 1-.497.066 17.683 17.683 0 0 1 4.56 0 17.96 17.96 0 0 0-.496-.066c1.51.206 2.986.61 4.392 1.2-.15-.06-.3-.127-.45-.187a17.51 17.51 0 0 1 3.849 2.254l-.38-.295a17.732 17.732 0 0 1 3.136 3.136l-.295-.38a17.694 17.694 0 0 1 2.254 3.849c-.06-.15-.126-.3-.187-.45.59 1.406.994 2.882 1.2 4.392a17.972 17.972 0 0 1-.066-.497c.131.994.15 1.987.15 2.986v11.33c0 .867.038 1.748-.075 2.61.024-.164.047-.332.066-.496a8.284 8.284 0 0 1-.563 2.067c.061-.15.127-.3.188-.45a8.388 8.388 0 0 1-1.092 1.865l.295-.38a8.467 8.467 0 0 1-1.477 1.477l.38-.295a8.65 8.65 0 0 1-1.866 1.092c.15-.06.3-.126.45-.187a8.346 8.346 0 0 1-2.067.562c.164-.023.333-.047.497-.066-.727.094-1.458.076-2.189.076H29.024c-.98 0-1.922.862-1.876 1.875.047 1.017.826 1.875 1.875 1.875h3.455c.436 0 .872.009 1.308-.005 1.355-.042 2.616-.361 3.853-.89 2.086-.896 3.895-2.616 4.899-4.65.6-1.22.942-2.466 1.068-3.821.033-.347.033-.694.033-1.045v-7.27c0-1.993.005-3.985 0-5.977-.005-2.17-.366-4.378-1.116-6.418a19.891 19.891 0 0 0-3.459-5.962c-2.798-3.337-6.858-5.71-11.147-6.445a19.78 19.78 0 0 0-7.144.056c-2.16.412-4.28 1.252-6.159 2.395a19.503 19.503 0 0 0-8.236 10.252c-.68 1.96-1.008 4.064-1.012 6.136v10.922c0 .98.862 1.921 1.875 1.875 1.012-.047 1.875-.825 1.875-1.875Z" fill="#393D46"/><path d="M27.149 42.636c0 .131-.01.263-.029.39.024-.165.047-.334.066-.498-.037.23-.098.455-.183.67.061-.15.127-.3.188-.45a3.15 3.15 0 0 1-.375.643l.295-.38c-.14.178-.3.338-.478.478l.38-.295c-.197.15-.413.276-.643.375.15-.061.3-.127.45-.188-.215.09-.44.15-.67.183.164-.023.333-.047.497-.065-.614.08-1.256.028-1.875.028-.628 0-1.28.051-1.903-.024.164.024.333.047.497.066a3.064 3.064 0 0 1-.703-.192c.15.06.3.126.45.187a3.104 3.104 0 0 1-.614-.36l.38.295a3.172 3.172 0 0 1-.502-.502l.295.38a3.106 3.106 0 0 1-.36-.614c.06.15.126.3.187.45a3.004 3.004 0 0 1-.193-.703c.024.164.047.332.066.496a2.979 2.979 0 0 1 0-.764c-.023.164-.047.333-.066.497.038-.23.099-.454.183-.67-.06.15-.126.3-.187.45.098-.23.225-.44.375-.642l-.296.38c.141-.179.3-.338.479-.479l-.38.296c.197-.15.412-.277.642-.375-.15.06-.3.126-.45.187.216-.089.44-.15.67-.183-.164.024-.332.047-.496.066.614-.08 1.256-.028 1.875-.028.628 0 1.28-.052 1.903.023a17.965 17.965 0 0 0-.497-.065c.244.037.473.098.703.192-.15-.061-.3-.127-.45-.188a3.1 3.1 0 0 1 .614.361l-.38-.295c.188.15.352.314.502.502l-.296-.38c.146.192.263.394.361.614-.06-.15-.126-.3-.187-.45a3 3 0 0 1 .192.703 18.415 18.415 0 0 1-.066-.497c.02.127.024.248.029.375.004.483.206.98.548 1.327.323.323.858.572 1.327.548 1.003-.047 1.889-.825 1.875-1.875-.01-.853-.24-1.744-.713-2.466-.445-.675-1.05-1.289-1.781-1.65a4.963 4.963 0 0 0-2.17-.534h-3a4.851 4.851 0 0 0-2.236.577c-.675.356-1.2.904-1.641 1.518-.455.638-.647 1.393-.745 2.161-.103.854.112 1.711.478 2.48.351.75.947 1.34 1.622 1.81.853.59 1.875.75 2.887.75H26.244a4.856 4.856 0 0 0 2.24-.577c1.486-.788 2.396-2.414 2.415-4.074.009-.98-.872-1.922-1.875-1.875-1.027.052-1.866.83-1.875 1.88Z" fill="#393D46"/></svg>