<svg width="49" height="49" fill="none" xmlns="http://www.w3.org/2000/svg"><path d="M27.782 12.772V31.344c0 .853-.02 1.71 0 2.564v.037l1.875-1.875H15.65l1.875 1.875c-.01-1.101-.323-2.264-.97-3.164a6.369 6.369 0 0 0-1.416-1.443c-.445-.338-.947-.568-1.472-.76-2.076-.768-4.659-.06-6.08 1.631-.89 1.064-1.4 2.34-1.415 3.741l1.875-1.875H6.322c-.586 0-1.195.052-1.781-.014.164.023.333.047.497.066a1.897 1.897 0 0 1-.366-.094c.15.06.3.127.45.187a1.662 1.662 0 0 1-.375-.215l.38.295a1.678 1.678 0 0 1-.258-.258l.295.38c-.089-.117-.16-.24-.215-.375.06.15.126.3.187.45a1.677 1.677 0 0 1-.094-.366c.024.164.047.333.066.497-.023-.225-.014-.455-.014-.68V15.15c0-.783-.01-1.566 0-2.344 0-.075.005-.146.014-.22-.023.163-.047.332-.066.496.02-.126.052-.248.094-.365-.06.15-.126.3-.187.45.056-.136.126-.258.215-.375l-.295.38c.08-.099.164-.183.258-.258l-.38.295c.117-.09.24-.16.375-.216-.15.061-.3.127-.45.188.122-.047.24-.075.366-.094-.164.024-.333.047-.497.066.258-.028.525-.014.787-.014h19.983c.933 0 1.866-.014 2.799 0 .075 0 .15.004.225.014a18.363 18.363 0 0 0-.497-.066c.126.019.248.052.365.094-.15-.061-.3-.127-.45-.188.136.056.258.127.375.216l-.38-.295c.1.08.183.164.258.257l-.295-.38c.09.118.16.24.216.376-.061-.15-.127-.3-.188-.45.047.122.075.239.094.365a18.355 18.355 0 0 1-.066-.496c.01.056.015.121.015.187.009.487.201.98.548 1.326.323.324.858.572 1.327.549.998-.047 1.898-.825 1.875-1.875a3.565 3.565 0 0 0-.91-2.311c-.436-.497-1.134-.9-1.79-1.003a5.092 5.092 0 0 0-.844-.08H7.517c-.923 0-1.851-.019-2.775 0A3.456 3.456 0 0 0 1.48 11.83c-.108.347-.131.717-.131 1.083v19.509c.009.59.154 1.102.412 1.631.29.59.872 1.144 1.472 1.407.516.23.998.36 1.57.365h3.248c1.023 0 1.866-.858 1.876-1.875 0-.173.014-.347.037-.52-.023.164-.047.333-.065.497.047-.338.14-.661.267-.97-.061.15-.127.3-.188.45.132-.305.3-.587.502-.85l-.295.38c.192-.243.407-.459.651-.651l-.38.295c.263-.201.544-.37.849-.501-.15.06-.3.126-.45.187.314-.131.637-.22.97-.267-.164.023-.333.047-.497.066a3.866 3.866 0 0 1 1.041 0 18.023 18.023 0 0 0-.497-.066c.338.047.661.14.97.267-.15-.06-.3-.126-.45-.187.305.131.586.3.849.501l-.38-.295c.244.192.46.408.652.652l-.296-.38c.202.262.37.544.502.848-.061-.15-.127-.3-.188-.45.132.314.22.638.268.97a18.355 18.355 0 0 1-.066-.496c.024.173.033.347.037.52.01 1.013.854 1.875 1.876 1.875h14.006c1.012 0 1.875-.858 1.875-1.875V15.378c0-.853.014-1.71 0-2.564v-.037c0-.98-.863-1.922-1.875-1.875-1.013.042-1.87.82-1.87 1.87Z" fill="#393D46"/><path d="M43.902 26.276v5.466c0 .29.018.59-.014.886.023-.164.046-.333.065-.497a1.898 1.898 0 0 1-.094.366c.061-.15.127-.3.188-.45a1.66 1.66 0 0 1-.216.375l.296-.38c-.08.098-.165.183-.258.258l.38-.295c-.118.089-.24.159-.376.215.15-.06.3-.126.45-.187a1.677 1.677 0 0 1-.365.093c.164-.023.333-.046.497-.065-.483.051-.985.014-1.472.014h-1.416l1.875 1.875c-.01-1.102-.323-2.264-.97-3.164a6.367 6.367 0 0 0-1.416-1.444c-.445-.337-.947-.567-1.472-.76-2.08-.768-4.659-.06-6.08 1.632-.89 1.064-1.4 2.339-1.415 3.74l1.875-1.874H29.652l1.875 1.875V19.372c0-.675.014-1.35 0-2.025v-.028l-1.875 1.875H37.006c.399 0 .816-.029 1.21.018a17.922 17.922 0 0 0-.497-.065c.169.028.323.07.483.13-.15-.06-.3-.126-.45-.187.178.075.342.17.492.286l-.38-.295c.31.248.553.59.806.89.455.544.91 1.088 1.37 1.632 1.063 1.27 2.127 2.545 3.196 3.816.258.309.52.614.773.923l-.295-.38c.108.146.192.29.267.455-.06-.15-.126-.3-.187-.45.065.164.112.328.14.506a17.966 17.966 0 0 1-.065-.497c.023.099.033.197.033.3.009.488.201.98.548 1.327.323.323.858.572 1.327.548.998-.046 1.893-.825 1.875-1.875a4.242 4.242 0 0 0-.488-1.893c-.145-.282-.356-.53-.558-.774-.084-.098-.164-.197-.248-.295l-1.228-1.467-3.324-3.97c-.304-.366-.61-.732-.914-1.093-.745-.886-1.884-1.345-3.028-1.345-1.355-.005-2.714 0-4.069 0-1.354 0-2.714-.014-4.068 0h-.07c-1.013 0-1.876.858-1.876 1.875V31.897c0 .675-.01 1.35 0 2.025v.028c0 1.012.858 1.875 1.875 1.875h4.313c1.022 0 1.865-.858 1.875-1.875 0-.174.014-.347.037-.52-.023.164-.047.332-.065.496a4.02 4.02 0 0 1 .267-.97c-.061.15-.127.3-.188.45.132-.305.3-.586.502-.848l-.295.38c.192-.244.407-.46.651-.652l-.38.295c.263-.202.544-.37.849-.502-.15.061-.3.127-.45.188.314-.131.637-.22.97-.267-.164.023-.333.047-.497.065a3.874 3.874 0 0 1 1.04 0A18.355 18.355 0 0 0 37.79 32c.338.047.661.14.97.267-.15-.06-.3-.127-.45-.188.305.132.586.3.849.502l-.38-.295c.244.192.46.408.652.651l-.296-.38c.202.263.37.544.502.85-.061-.15-.127-.3-.188-.45.132.313.22.637.268.97a17.972 17.972 0 0 1-.066-.498c.023.174.033.347.038.52.009 1.013.853 1.876 1.874 1.876h2.227c.492 0 .994.01 1.467-.155.572-.192 1.13-.51 1.519-.98.197-.239.384-.473.506-.754.206-.464.3-.806.352-1.313.051-.525.014-1.073.014-1.598V26.276c0-.98-.863-1.921-1.875-1.875-1.008.047-1.87.825-1.87 1.875Zm-30.132 7.67c0 .173-.014.346-.037.52.023-.165.047-.333.065-.497-.046.337-.14.66-.267.97.061-.15.127-.3.188-.45-.131.305-.3.586-.502.848l.295-.38c-.192.244-.407.46-.651.652l.38-.295c-.263.201-.544.37-.849.501.15-.06.3-.126.45-.187-.314.131-.637.22-.97.267.164-.023.333-.047.497-.066a3.866 3.866 0 0 1-1.04 0c.163.024.332.047.496.066a4.02 4.02 0 0 1-.97-.267c.15.06.3.127.45.187a3.965 3.965 0 0 1-.849-.501l.38.295a3.896 3.896 0 0 1-.652-.651l.296.38a3.964 3.964 0 0 1-.502-.85c.061.15.127.3.188.45a3.93 3.93 0 0 1-.268-.97c.024.165.047.333.066.497a3.868 3.868 0 0 1 0-1.04 18.01 18.01 0 0 0-.066.497c.047-.338.141-.661.268-.97-.061.15-.127.3-.188.45.131-.305.3-.587.502-.85l-.296.38c.193-.243.408-.459.652-.65l-.38.294c.263-.201.544-.37.849-.501-.15.06-.3.126-.45.187a3.93 3.93 0 0 1 .97-.267c-.164.024-.333.047-.497.066a3.874 3.874 0 0 1 1.04 0 18.355 18.355 0 0 0-.496-.066c.337.047.66.14.97.267-.15-.06-.3-.126-.45-.187.305.131.586.3.849.501l-.38-.295c.244.192.46.408.651.652l-.295-.38c.202.262.37.544.502.848-.061-.15-.127-.3-.188-.45.131.314.22.638.267.97a18.363 18.363 0 0 1-.065-.496c.028.173.037.347.037.52.005.483.207.984.549 1.327.323.323.858.572 1.326.548 1.008-.047 1.885-.825 1.875-1.875-.01-1.11-.328-2.287-.989-3.192a6.582 6.582 0 0 0-1.397-1.42c-.445-.343-.947-.568-1.472-.76-.53-.197-1.12-.281-1.687-.3a5.53 5.53 0 0 0-1.683.211c-1.036.295-2.044.91-2.733 1.744a6.361 6.361 0 0 0-1.036 1.753c-.21.525-.295 1.073-.346 1.636-.094 1.102.22 2.292.787 3.234.553.92 1.397 1.735 2.377 2.18.684.31 1.293.478 2.039.558.557.06 1.115 0 1.664-.108 1.148-.216 2.301-.905 3.051-1.8.89-1.064 1.402-2.339 1.416-3.74.01-.98-.867-1.922-1.875-1.876-1.013.052-1.856.83-1.866 1.88Z" fill="#393D46"/><path d="M39.692 33.945c0 .174-.014.347-.037.52.023-.164.047-.332.065-.496-.047.337-.14.66-.267.97.061-.15.127-.3.188-.45-.132.305-.3.586-.502.848l.295-.38c-.192.244-.407.46-.651.652l.38-.295c-.263.202-.544.37-.849.502.15-.061.3-.127.45-.188-.314.131-.637.22-.97.267.164-.023.333-.047.497-.065a3.874 3.874 0 0 1-1.041 0c.164.023.333.046.497.065a4.02 4.02 0 0 1-.97-.267c.15.061.3.127.45.188a3.965 3.965 0 0 1-.849-.502l.38.295a3.9 3.9 0 0 1-.652-.651l.296.38a3.961 3.961 0 0 1-.502-.85c.06.15.127.301.188.451a3.926 3.926 0 0 1-.268-.97c.024.164.047.332.066.496a3.874 3.874 0 0 1 0-1.04c-.024.164-.047.333-.066.497a4.02 4.02 0 0 1 .267-.97c-.06.15-.126.3-.187.45.131-.305.3-.587.502-.849l-.296.38a3.9 3.9 0 0 1 .652-.652l-.38.296c.263-.202.544-.37.849-.502-.15.06-.3.127-.45.187.314-.13.637-.22.97-.267-.164.024-.333.047-.497.066a3.874 3.874 0 0 1 1.04 0 18.31 18.31 0 0 0-.496-.066c.337.047.66.14.97.267-.15-.06-.3-.126-.45-.187.305.131.586.3.849.502l-.38-.296c.244.192.46.408.651.652l-.295-.38c.202.263.37.544.502.849-.061-.15-.127-.3-.188-.45.131.314.22.637.267.97a17.972 17.972 0 0 1-.065-.497c.023.173.037.347.037.52.005.483.206.985.549 1.327.323.323.857.572 1.326.548 1.008-.047 1.885-.825 1.875-1.875-.01-1.11-.328-2.287-.989-3.192a6.583 6.583 0 0 0-1.397-1.42c-.445-.342-.947-.567-1.472-.76-.53-.197-1.12-.28-1.687-.3a5.53 5.53 0 0 0-1.683.211c-1.036.296-2.044.91-2.733 1.744a6.365 6.365 0 0 0-1.036 1.753c-.21.525-.295 1.074-.347 1.636-.093 1.102.22 2.292.788 3.234.553.92 1.397 1.735 2.377 2.18a6.31 6.31 0 0 0 2.039.558c.557.06 1.115 0 1.664-.108 1.148-.215 2.301-.905 3.051-1.8.89-1.064 1.402-2.339 1.416-3.74.01-.98-.867-1.922-1.875-1.876-1.013.052-1.856.83-1.866 1.88Z" fill="#393D46"/></svg>