<svg width="100" height="83" fill="none" xmlns="http://www.w3.org/2000/svg"><path d="M64 8.922A1.012 1.012 0 0 0 62.922 8 1 1 0 0 0 62 9.078l1.174 14.974A14.236 14.236 0 0 0 51 33.018a14.235 14.235 0 0 0-12.178-8.966L40 9.078a1.003 1.003 0 1 0-2-.156l-1.23 15.694A10.33 10.33 0 0 0 51 39.542a10.329 10.329 0 0 0 14.224-14.926L64 8.922ZM38.452 37.548A8.37 8.37 0 0 1 38.168 26 12.233 12.233 0 0 1 50 37.834a8.37 8.37 0 0 1-11.548-.286Zm25.094 0a8.38 8.38 0 0 1-11.54.284A12.235 12.235 0 0 1 63.832 26a8.368 8.368 0 0 1-.286 11.548ZM3.488 63.454v7.938c0 1.116.27 1.944.81 2.484.552.54 1.314.81 2.286.81.96 0 1.71-.27 2.25-.81.552-.54.828-1.368.828-2.484v-7.938H11.3v7.92c0 1.044-.21 1.926-.63 2.646a3.958 3.958 0 0 1-1.71 1.584c-.708.348-1.506.522-2.394.522-.888 0-1.692-.174-2.412-.522a3.981 3.981 0 0 1-1.692-1.584c-.408-.72-.612-1.602-.612-2.646v-7.92h1.638Zm15.35 2.502c1.2 0 2.172.366 2.916 1.098.744.72 1.116 1.764 1.116 3.132V76h-1.62v-5.58c0-.984-.245-1.734-.738-2.25-.492-.528-1.163-.792-2.015-.792-.864 0-1.555.27-2.07.81-.505.54-.756 1.326-.756 2.358V76h-1.638v-9.864h1.638v1.404a3.266 3.266 0 0 1 1.314-1.17 4.16 4.16 0 0 1 1.854-.414Zm6.096 5.076c0-1.008.204-1.89.612-2.646a4.446 4.446 0 0 1 1.674-1.782c.72-.42 1.524-.63 2.412-.63.768 0 1.482.18 2.142.54.66.348 1.164.81 1.512 1.386v-5.22h1.656V76h-1.656v-1.854c-.324.588-.804 1.074-1.44 1.458-.636.372-1.38.558-2.232.558a4.564 4.564 0 0 1-2.394-.648c-.708-.432-1.266-1.038-1.674-1.818-.408-.78-.612-1.668-.612-2.664Zm8.352.018c0-.744-.15-1.392-.45-1.944a3.098 3.098 0 0 0-1.224-1.26 3.211 3.211 0 0 0-1.674-.45c-.612 0-1.17.144-1.674.432a3.134 3.134 0 0 0-1.206 1.26c-.3.552-.45 1.2-.45 1.944 0 .756.15 1.416.45 1.98.3.552.702.978 1.206 1.278a3.314 3.314 0 0 0 1.674.432c.612 0 1.17-.144 1.674-.432.516-.3.924-.726 1.224-1.278.3-.564.45-1.218.45-1.962Zm13.424-.36c0 .312-.018.642-.054.99h-7.884c.06.972.39 1.734.99 2.286.612.54 1.35.81 2.214.81.708 0 1.296-.162 1.764-.486.48-.336.816-.78 1.008-1.332h1.764a4.284 4.284 0 0 1-1.584 2.322c-.792.588-1.776.882-2.952.882-.936 0-1.776-.21-2.52-.63a4.492 4.492 0 0 1-1.728-1.782c-.42-.78-.63-1.68-.63-2.7 0-1.02.204-1.914.612-2.682a4.254 4.254 0 0 1 1.71-1.764c.744-.42 1.596-.63 2.556-.63.936 0 1.764.204 2.484.612.72.408 1.272.972 1.656 1.692.396.708.594 1.512.594 2.412Zm-1.692-.342c0-.624-.138-1.158-.414-1.602a2.605 2.605 0 0 0-1.134-1.026c-.468-.24-.99-.36-1.566-.36-.828 0-1.536.264-2.124.792-.576.528-.906 1.26-.99 2.196h6.228Zm5.492-2.61a3.16 3.16 0 0 1 1.224-1.314c.54-.312 1.194-.468 1.962-.468v1.692h-.432c-1.836 0-2.754.996-2.754 2.988V76h-1.638v-9.864h1.638v1.602Zm18.217-1.602L65.65 76h-1.692l-2.376-7.83L59.205 76h-1.692l-3.096-9.864h1.674l2.268 8.28 2.448-8.28h1.674l2.394 8.298 2.232-8.298h1.62Zm10.626 4.554c0 .312-.018.642-.054.99h-7.884c.06.972.39 1.734.99 2.286.612.54 1.35.81 2.214.81.708 0 1.296-.162 1.764-.486.48-.336.816-.78 1.008-1.332h1.764a4.284 4.284 0 0 1-1.584 2.322c-.792.588-1.776.882-2.952.882-.936 0-1.776-.21-2.52-.63a4.492 4.492 0 0 1-1.728-1.782c-.42-.78-.63-1.68-.63-2.7 0-1.02.204-1.914.612-2.682a4.254 4.254 0 0 1 1.71-1.764c.744-.42 1.596-.63 2.556-.63.936 0 1.764.204 2.484.612.72.408 1.272.972 1.656 1.692.396.708.594 1.512.594 2.412Zm-1.692-.342c0-.624-.138-1.158-.414-1.602a2.605 2.605 0 0 0-1.134-1.026c-.468-.24-.99-.36-1.566-.36-.828 0-1.536.264-2.124.792-.576.528-.906 1.26-.99 2.196h6.228Zm3.242.684c0-1.008.204-1.89.612-2.646a4.446 4.446 0 0 1 1.674-1.782c.72-.42 1.518-.63 2.394-.63.864 0 1.614.186 2.25.558.636.372 1.11.84 1.422 1.404v-1.8h1.656V76h-1.656v-1.836c-.324.576-.81 1.056-1.458 1.44-.636.372-1.38.558-2.232.558-.876 0-1.668-.216-2.376-.648-.708-.432-1.266-1.038-1.674-1.818-.408-.78-.612-1.668-.612-2.664Zm8.352.018c0-.744-.15-1.392-.45-1.944a3.098 3.098 0 0 0-1.224-1.26 3.211 3.211 0 0 0-1.674-.45c-.612 0-1.17.144-1.674.432a3.134 3.134 0 0 0-1.206 1.26c-.3.552-.45 1.2-.45 1.944 0 .756.15 1.416.45 1.98.3.552.702.978 1.206 1.278a3.314 3.314 0 0 0 1.674.432c.612 0 1.17-.144 1.674-.432.516-.3.924-.726 1.224-1.278.3-.564.45-1.218.45-1.962Zm6.062-3.312a3.16 3.16 0 0 1 1.224-1.314c.54-.312 1.194-.468 1.962-.468v1.692h-.432c-1.836 0-2.754.996-2.754 2.988V76h-1.638v-9.864h1.638v1.602Z" fill="#CDCFD1"/></svg>